<?xml version="1.0" encoding="utf-8"?>
<!-- Generator: Adobe Illustrator 24.0.1, SVG Export Plug-In . SVG Version: 6.00 Build 0)  -->
<svg version="1.1" id="Layer_1" xmlns="http://www.w3.org/2000/svg" xmlns:xlink="http://www.w3.org/1999/xlink" x="0px" y="0px"
	 viewBox="0 0 343 211" style="enable-background:new 0 0 343 211;" xml:space="preserve">
<style type="text/css">
	.st0{opacity:0.1;fill:#116D3B;enable-background:new    ;}
	.st1{opacity:0.2;}
	.st2{fill:#3F3D56;}
	.st3{fill:#116D3B;}
	.st4{opacity:0.1;enable-background:new    ;}
	.st5{fill:#F1C0C0;}
	.st6{fill:#BE6F72;}
	.st7{fill:#8D8D8D;}
	.st8{fill:#E7E7E7;}
	.st9{fill:none;stroke:#DEDEDE;stroke-width:0.5;stroke-miterlimit:10;}
	.st10{fill:#FED253;}
	.st11{fill:#FBBEBE;}
	.st12{fill:#888888;}
</style>
<g transform="translate(.02)">
	<path class="st0" d="M343,135.5c0,5.7-0.7,11.4-2.1,17c-0.5,1.9-1,3.7-1.6,5.5c-0.7,2.2-1.6,4.4-2.6,6.5c-0.5,1.1-1,2.1-1.6,3.1
		c0,5.9-1.2,11.7-3.5,17c-4.2,9.6-11.8,17.4-21.3,22c-5.9,2.8-12.5,4.3-19,4.4H65.1c-10.1,0-20-2.6-28.7-7.7l-0.1-0.1
		c-1.2-0.7-2.4-1.5-3.6-2.3c-2.7-1.8-5.1-3.9-7.5-6.1c-3.1-3-5.9-6.4-8.2-10.1c-5.4-8.7-8.3-18.7-8.3-28.9
		C2.9,145.4-0.1,133.8,0,122c-0.1-14.8,4.6-29.2,13.5-40.9c1.8-2.3,3.7-4.4,5.7-6.4c2-2,4.2-3.8,6.6-5.4c1.9-1.3,3.8-2.5,5.8-3.5
		c0.8-0.4,1.7-0.8,2.5-1.2c0.8-0.3,1.5-0.7,2.3-0.9c0.9-0.4,1.9-0.7,2.8-1s1.9-0.6,2.8-0.8c1.4-0.3,2.8-0.6,4.2-0.8
		c1.2-0.2,2.3-0.3,3.5-0.4c0.9-0.1,1.8-0.1,2.8-0.1H53c1,0,2.1,0,3.1,0.1c0.1-0.2,0.2-0.4,0.3-0.7c0.4-0.8,0.8-1.5,1.3-2.3
		c0,0,0,0,0,0c0.1-0.1,0.2-0.3,0.2-0.4c0.3-0.6,0.7-1.2,1.1-1.8c0.2-0.3,0.3-0.6,0.5-0.8c0-0.1,0.1-0.1,0.1-0.2
		c0.2-0.3,0.3-0.6,0.5-0.9c0.9-1.4,1.8-2.9,2.8-4.2l0.2-0.4c0.2-0.2,0.3-0.4,0.5-0.6c0.4-0.6,0.8-1.1,1.2-1.7
		c0.3-0.4,0.6-0.8,0.9-1.2c0.8-1,1.5-1.9,2.3-2.9c0.8-1,1.6-1.9,2.5-2.9c0.1-0.1,0.2-0.3,0.4-0.4l1.2-1.3c0.1-0.1,0.1-0.1,0.2-0.2
		c0.2-0.2,0.3-0.3,0.4-0.5c0.7-0.7,1.3-1.4,2-2.1c3.5-3.5,7.2-6.7,11.2-9.7c0.2-0.1,0.3-0.2,0.5-0.4c0.7-0.6,1.5-1.1,2.2-1.6
		c4.1-3,8.5-5.7,12.9-8.1c0.3-0.2,0.6-0.3,0.9-0.5c4-2.1,8.2-4,12.4-5.7c2.3-0.9,4.7-1.8,7-2.6c1.6-0.5,3.2-1,4.8-1.5
		c2.5-0.7,5-1.4,7.6-1.9c7.5-1.7,15.1-2.7,22.8-3.1c2.3-0.1,4.7-0.2,7.1-0.2c11.5,0,22.9,1.4,34.1,4.3c0.2,0.4,0.6,0.6,1.1,0.6h1
		c0.4,0.1,0.9,0.2,1.3,0.4c2.4,0.7,4.7,1.4,7,2.2l0.6,0.2c5.7,2,11.2,4.5,16.6,7.3c4.8,2.5,9.4,5.4,13.9,8.6c0.7,0.5,1.4,1,2,1.5
		c0.8-0.5,1.6-1,2.4-1.5c3.2-1.8,6.6-3.3,10.2-4.3c7.4-2.2,15.2-2.5,22.8-0.9c9.7,2.2,18.6,7.2,25.5,14.4c2.9,3,5.4,6.2,7.6,9.7
		c0.2,0.2,0.3,0.5,0.5,0.8c1.9,3.1,3.5,6.3,4.9,9.7c0,0.1,0.1,0.2,0.1,0.4c1.2,3.2,2.2,6.4,3,9.7c0,0.2,0.1,0.3,0.1,0.5
		c0.7,3.2,1.2,6.5,1.4,9.7c0,0.1,0,0.2,0,0.3c0.1,1.7,0.2,3.4,0.2,5.1c0,1.6,0,3.1-0.1,4.6c0,0.2,0,0.3,0,0.5c0,0.4-0.1,0.9-0.1,1.3
		c2.2,1.8,4.3,3.8,6.2,5.9c0.8,0.9,1.7,1.9,2.5,2.9c2.4,3,4.5,6.3,6.4,9.7C340.4,113.4,343.1,124.4,343,135.5L343,135.5z"/>
	<path class="st0" d="M310.1,205.5c0,2-6.9,3.9-18.8,5.4H65.1c-10.1,0-20-2.6-28.7-7.7l-0.1-0.1c3.4-1.2,9.6-2.4,18.1-3.5l0.4-0.1
		c3.8-0.4,8-0.9,12.6-1.3c0.1,0,0.2,0,0.4,0c3.7-0.3,7.6-0.6,11.7-0.9c0.1,0,0.3,0,0.4,0c1.6-0.1,3.2-0.2,4.9-0.3l0.6-0.1
		c12.1-0.8,25.9-1.4,40.8-1.8h0c2.1-0.1,4.2-0.1,6.3-0.1c2.4-0.1,4.8-0.1,7.2-0.1c1.9,0,3.7-0.1,5.6-0.1h0.1
		c8.5-0.1,17.3-0.2,26.3-0.2c22.2,0,43.2,0.4,61.8,1.1h0.1c2.9,0.1,5.7,0.2,8.4,0.4l2.3,0.1c3.1,0.2,6.1,0.3,9,0.5
		C287.7,198.8,310.1,201.9,310.1,205.5L310.1,205.5z"/>
	<g transform="translate(180.93 115.024)" class="st1">
		<path class="st2" d="M17.2,78.3c0,0.3,0,0.6-0.1,0.9c-2-0.3-4.1-0.6-6.1-0.9v-0.2c0-0.9,0.3-1.7,0.7-2.5c0.6-1.3,2.3-1.9,3.6-1.3
			c0.6,0.3,1.1,0.8,1.3,1.4C17,76.6,17.2,77.5,17.2,78.3L17.2,78.3z"/>
		
			<ellipse transform="matrix(3.158516e-02 -0.9995 0.9995 3.158516e-02 -59.4725 85.1673)" class="st2" cx="14.2" cy="73.3" rx="4.1" ry="3.1"/>
		
			<ellipse transform="matrix(3.158516e-02 -0.9995 0.9995 3.158516e-02 -54.3361 80.4987)" class="st2" cx="14.4" cy="68.3" rx="4.1" ry="3.1"/>
		
			<ellipse transform="matrix(3.158516e-02 -0.9995 0.9995 3.158516e-02 -49.2015 75.8261)" class="st2" cx="14.5" cy="63.3" rx="4.1" ry="3.1"/>
		
			<ellipse transform="matrix(3.158516e-02 -0.9995 0.9995 3.158516e-02 -44.0669 71.1535)" class="st2" cx="14.7" cy="58.3" rx="4.1" ry="3.1"/>
		<path class="st3" d="M4.1,23.8c-0.4-0.6-0.8-1.1-1.1-1.7l8.2-1.1l-8.9-0.2C0.8,17,0.8,12.7,2.5,8.9l11.7,6.5L3.4,7.1
			C7.8,0.1,17-2,24,2.3s9.1,13.6,4.8,20.6c-0.4,0.6-0.8,1.1-1.2,1.7c0.6,0.9,1.2,1.8,1.6,2.8l-10.8,5.2l11.5-3.4
			c1.5,4.8,0.4,10.1-2.9,14c4.9,6.6,3.5,16-3.2,20.9s-16,3.5-20.9-3.2c-4.1-5.5-3.8-13.2,0.6-18.4C-0.6,36.7-0.3,29.1,4.1,23.8
			L4.1,23.8z"/>
		<path class="st4" d="M30.5,33.9c-0.1,3.3-1.3,6.6-3.5,9.1c4.9,6.6,3.5,16-3.2,20.9s-16,3.5-20.9-3.2c-4.1-5.5-3.8-13.2,0.6-18.4
			C1.6,39.7,30.5,32.2,30.5,33.9L30.5,33.9z"/>
	</g>
	<g transform="translate(136.666 115.024)" class="st1">
		<path class="st2" d="M17.2,78.3c0,0.3,0,0.6-0.1,0.9c-2-0.3-4.1-0.6-6.1-0.9v-0.2c0-0.9,0.3-1.7,0.7-2.5c0.6-1.3,2.3-1.9,3.6-1.3
			c0.6,0.3,1.1,0.8,1.3,1.4C17,76.6,17.2,77.5,17.2,78.3L17.2,78.3z"/>
		
			<ellipse transform="matrix(3.158516e-02 -0.9995 0.9995 3.158516e-02 -59.4764 85.1653)" class="st2" cx="14.2" cy="73.3" rx="4.1" ry="3.1"/>
		
			<ellipse transform="matrix(3.158516e-02 -0.9995 0.9995 3.158516e-02 -54.34 80.4966)" class="st2" cx="14.4" cy="68.3" rx="4.1" ry="3.1"/>
		
			<ellipse transform="matrix(3.158516e-02 -0.9995 0.9995 3.158516e-02 -49.2054 75.824)" class="st2" cx="14.5" cy="63.3" rx="4.1" ry="3.1"/>
		
			<ellipse transform="matrix(3.158516e-02 -0.9995 0.9995 3.158516e-02 -44.0708 71.1514)" class="st2" cx="14.7" cy="58.3" rx="4.1" ry="3.1"/>
		<path class="st3" d="M4.1,23.8c-0.4-0.6-0.8-1.1-1.1-1.7l8.2-1.1l-8.9-0.2C0.8,17,0.8,12.7,2.5,8.9l11.7,6.5L3.4,7.1
			C7.8,0.1,17-2,24,2.3s9.1,13.6,4.8,20.6c-0.4,0.6-0.8,1.1-1.2,1.7c0.6,0.9,1.2,1.8,1.6,2.8l-10.8,5.2l11.5-3.4
			c1.5,4.8,0.4,10.1-2.9,14c4.9,6.6,3.5,16-3.2,20.9s-16,3.5-20.9-3.2c-4.1-5.5-3.8-13.2,0.6-18.4C-0.6,36.7-0.3,29.1,4.1,23.8
			L4.1,23.8z"/>
		<path class="st4" d="M30.5,33.9c-0.1,3.3-1.3,6.6-3.5,9.1c4.9,6.6,3.5,16-3.2,20.9s-16,3.5-20.9-3.2c-4.1-5.5-3.8-13.2,0.6-18.4
			C1.6,39.7,30.5,32.2,30.5,33.9L30.5,33.9z"/>
	</g>
	<g transform="translate(241.719 45.78)" class="st1">
		<path class="st2" d="M33,150.8c0,0.6-0.1,1.2-0.2,1.8c-3.9-0.6-7.8-1.2-11.8-1.7v-0.5c0-1.7,0.5-3.3,1.4-4.8
			c1.3-2.6,4.4-3.6,7-2.4c1.1,0.6,2,1.5,2.5,2.7C32.7,147.4,33.1,149.1,33,150.8L33,150.8z"/>
		
			<ellipse transform="matrix(3.158516e-02 -0.9995 0.9995 3.158516e-02 -114.4575 163.8734)" class="st2" cx="27.3" cy="141" rx="7.9" ry="6"/>
		
			<ellipse transform="matrix(3.158516e-02 -0.9995 0.9995 3.158516e-02 -104.5718 154.8804)" class="st2" cx="27.6" cy="131.4" rx="7.9" ry="6"/>
		
			<ellipse transform="matrix(3.158516e-02 -0.9995 0.9995 3.158516e-02 -94.6812 145.8905)" class="st2" cx="27.9" cy="121.8" rx="7.9" ry="6"/>
		
			<ellipse transform="matrix(2.998030e-02 -0.9996 0.9996 2.998030e-02 -84.6678 136.3195)" class="st2" cx="27.9" cy="111.8" rx="7.9" ry="6"/>
		<path class="st3" d="M7.8,45.8c-0.8-1.1-1.5-2.2-2.1-3.3l15.9-2.1L4.5,40c-3.1-7.3-3-15.5,0.2-22.8l22.5,12.6L6.6,13.6
			C14.9,0,32.6-4.3,46.1,4S64,30,55.7,43.5c-0.8,1.3-1.7,2.5-2.7,3.7c1.2,1.7,2.3,3.5,3.1,5.3l-20.8,10l22-6.6
			c2.8,9.3,0.8,19.4-5.5,26.8c9.4,12.8,6.7,30.8-6.1,40.2s-30.8,6.7-40.2-6.1c-7.9-10.7-7.4-25.4,1.1-35.5
			C-1.2,70.7-0.7,56,7.8,45.8z"/>
		<path class="st4" d="M58.6,65.2c-0.2,6.4-2.6,12.6-6.7,17.6c9.4,12.8,6.7,30.8-6.1,40.2s-30.8,6.7-40.2-6.1
			c-7.9-10.7-7.4-25.4,1.1-35.5C3,76.3,58.7,62,58.6,65.2L58.6,65.2z"/>
	</g>
	<path class="st5" d="M45.9,197.1h7.4l5.5-88.5l53.9-90l-2.3-2.5V9.7L52,106.5L45.9,197.1z"/>
	<path class="st4" d="M49.3,197.1h4l5.5-88.5l53.9-90l-2.3-2.5l-55.6,91.2L49.3,197.1z"/>
	<path class="st5" d="M36.9,197.8l139.7,10.7h0.1l135.2-8.3h0.1v-5.7l-149-2.7l-124.3-0.1h-0.9l-0.1,0.6L36.9,197.8z"/>
	<path class="st4" d="M36.9,197.8l139.7,10.7h0.1l135.2-8.3l0.1-0.1v-5.5H312l-135.3,4.5l-137.9-7.5h0l-0.2,0.2l-0.7,0.5L36.9,197.8
		z"/>
	<path class="st4" d="M36.9,197.8l139.7,10.7v-9.4l-138.1-7.3l-0.7,0.5L36.9,197.8z"/>
	<path class="st5" d="M110.3,16l61.6,66.1L170,198.4l5.2,0.6l0.1,0h5.2l0.6-112l115.4,38.5l2,68.6l4.2,0.5l1.4,0.2l-3.3-74
		L180.3,78.5L114.2,9.8h-3.8L110.3,16z"/>
	<path class="st4" d="M180.7,84.9l0.5,2.1l115.4,38.5l1.9,68.6l4.2,0.5l-3.3-70.5L180.7,84.9z"/>
	<path class="st4" d="M110.3,16l61.6,66.1L170,198.4l5.2,0.6l1.4-120.8L110.3,9.8L110.3,16z"/>
	<path class="st5" d="M180.9,131.6l42.3,8.3h0l74.1,14.6l3.4-1.4v-0.2l-0.2-4.7L181,124.1L180.9,131.6z"/>
	<path class="st4" d="M223.3,140l74.1,14.6l3.4-1.4V153L223.3,140z"/>
	<path class="st5" d="M226.1,102.1l1.1,63l0.6,32.3l5.2-0.2l3.3-0.1l-1-94.1l-2.3-0.8l-0.5-0.2L226.1,102.1z"/>
	<path class="st4" d="M226.1,102.1L226.1,102.1l1.1,63l0.6,32.3l5.2-0.2v-95.2L226.1,102.1z"/>
	<path class="st2" d="M144.5,118.2c0.3,0.2,0.6,0.4,0.9,0.6c0.3,0.3,0.6,0.6,0.9,1c1.2,1.6,2.4,3.5,2.3,5.5c0,0.6-0.2,1.2-0.6,1.6
		c-0.6,0.4-1.3,0.5-1.9,0.5c-0.7,0.1-1.5-0.1-2.1-0.4c-0.6-0.4-1.2-1.1-1.9-1.1c-0.1,0-0.2,0-0.3,0c-0.3-0.1-0.3-0.4-0.5-0.7
		c-0.3-0.4-0.9-0.3-1.4-0.1c-0.4,0.2-0.9,0.3-1.4,0.2c-0.3-0.1-0.5-0.3-0.6-0.6c-0.9-1.8-1.5-3.8-1.5-5.9c-0.1-1.2-1.1-5.4,1.5-4.5
		c1.2,0.5,2.3,1.2,3.3,1.9L144.5,118.2z"/>
	<path class="st2" d="M141.9,118.6c0.5,0.3,1.1,0.3,1.6-0.1c0.4-0.4,0.7-0.9,0.8-1.5c0.3-0.1,0.4,0.3,0.6,0.5c0.3,0.4,1,0.4,1.3,0.8
		c0.2,0.3,0.1,0.7,0.3,1c0.2,0.4,0.6,0.7,1,1c0.3,0.4,0.5,0.8,0.6,1.3l0.5,1.4c0.2,0.6,0.4,1.2,0.4,1.9c0.1,0.6-0.1,1.3-0.6,1.8
		c-1,0.7-2.3,0.9-3.5,0.7c-0.8-0.3-1.4-1.1-1.6-1.9c-0.2-0.8-0.3-1.7-0.3-2.6c-0.1-0.8-0.4-1.7-0.7-2.4c-0.3-0.6-1-1.5-0.9-2.2
		C141.6,118.3,141.7,118.5,141.9,118.6L141.9,118.6z"/>
	<path class="st6" d="M142.9,115.6c-0.1-0.4-0.2-0.8-0.2-1.3c0.1-0.9,0.3-1.7,0.8-2.5l-3.3,0.4c-0.4,0-0.8,0.2-1.1,0.5
		c-0.2,0.3-0.2,0.8,0,1.1c0.2,0.3,0.3,0.7,0.4,1c0,0.3,0,0.6,0.1,0.9c0.1,0.2,0.3,0.4,0.4,0.6c0.9,1.1,1.7,2.3,2.4,3.5
		c0,0,2-1.6,1.9-2.1c-0.1-0.3-0.6-0.6-0.8-0.9C143.3,116.5,143.1,116.1,142.9,115.6L142.9,115.6z"/>
	<g id="Toru2">
		<g>
			<path class="st7" d="M171.8,104.3c0,3.2-2.1,5.8-5,6.6c-0.6,0.2-1.2,0.3-1.9,0.3c-3.8,0-6.9-3.1-6.9-6.9c0-3.1,2-5.7,4.8-6.5
				c0.7-0.2,1.3-0.3,2.1-0.3C168.8,97.4,171.8,100.5,171.8,104.3z"/>
			<path class="st8" d="M166.9,110.9l-55,13.7c-0.6,0.2-1.3,0.3-2,0.3c-3.2,0-6.9-3.4-6.9-7.4c0.1-2.9,2-5.6,5-6.7
				c18.3-4.3,36.6-8.7,54.9-13c-2.8,0.9-4.8,3.5-4.8,6.5c0,3.8,3.1,6.9,6.9,6.9C165.6,111.1,166.3,111,166.9,110.9z"/>
		</g>
		<g>
			<path class="st9" d="M158.8,99.6c-4.4,8.6,2.4,11,3,11.3"/>
			<path class="st9" d="M155,100.5c-4.4,8.6,2.4,11,3,11.3"/>
			<path class="st9" d="M151.2,101.5c-4.4,8.6,2.4,11,3,11.3"/>
			<path class="st9" d="M147.4,102.4c-4.4,8.6,2.4,11,3,11.3"/>
			<path class="st9" d="M143.6,103.4c-4.4,8.6,2.4,11,3,11.3"/>
			<path class="st9" d="M139.8,104.3c-4.4,8.6,2.4,11,3,11.3"/>
			<path class="st9" d="M136,105.3c-4.4,8.6,2.4,11,3,11.3"/>
			<path class="st9" d="M132.2,106.2c-4.4,8.6,2.4,11,3,11.3"/>
			<path class="st9" d="M128.4,107.2c-4.4,8.6,2.4,11,3,11.3"/>
			<path class="st9" d="M124.6,108.1c-4.4,8.6,2.4,11,3,11.3"/>
			<path class="st9" d="M120.8,109.1c-4.4,8.6,2.4,11,3,11.3"/>
			<path class="st9" d="M117,110c-4.4,8.6,2.4,11,3,11.3"/>
			<path class="st9" d="M113.2,111c-4.4,8.6,2.4,11,3,11.3"/>
			<path class="st9" d="M109.4,111.9c-4.4,8.6,2.4,11,3,11.3"/>
			<path class="st9" d="M105.6,112.9c-4.4,8.6,2.4,11,3,11.3"/>
		</g>
	</g>
	<path class="st3" d="M132.1,185.7c-1.1-1.4-3-1.8-4.6-1c-0.2,0.1-0.3,0.2-0.4,0.3c-0.3,0.4-0.1,1-0.1,1.5c0.1,1.2-0.9,2.2-1.8,3.1
		c-0.5,0.4-0.9,1-1.2,1.6c-0.3,0.6,0,1.4,0.5,1.8c0.2,0.1,0.5,0.2,0.8,0.2c0.9,0.2,1.9,0.2,2.8,0.1c1-0.1,1.8-0.7,2.2-1.6
		c0.1-0.2,0.2-0.4,0.4-0.6c0.5-0.4,1.3,0.1,1.9-0.2c0.5-0.2,0.5-0.6,0.5-1.1C133.2,188.3,132.8,186.9,132.1,185.7L132.1,185.7z"/>
	<path class="st3" d="M139,185.6c0.3,1,0.5,2,0.4,3c0.1,0.6,0,1.2-0.3,1.7c-0.4,0.5-0.9,0.8-1.5,0.9c-1.2,0.3-2.5,0-3.4-0.9
		c-0.6-0.8-0.8-1.8-0.6-2.7c0.1-0.8,0.3-1.7-0.3-2.3c-0.1-0.2-0.3-0.3-0.5-0.4c-0.3-0.4-0.3-0.9-0.1-1.3c0.2-0.4,0.4-0.9,0.5-1.3
		c1.4-0.1,2.9,0,4.3,0.3c0.5,0.2,0.4,0.6,0.6,1.1C138.4,184.3,138.8,185,139,185.6L139,185.6z"/>
	<path class="st2" d="M139.8,143.8c0.7,0.6,1.2,1.5,1.2,2.4c0.3,2.5-0.2,5-0.3,7.5c0,3.5,1,7.1,0.1,10.5c-0.5,2-0.1,4.4-0.6,6.4
		c-0.2,0.6-0.4,1.2-0.6,1.8c-0.2,1.3-0.1,2.7,0.4,4c0.1,0.4,0.2,0.7,0.2,1.1c0,0.6-0.2,1.1-0.4,1.6l-1.7,4.1c-0.2,0.5-1,0.5-1.5,0.6
		c-0.9,0.2-1.9,0.1-2.7-0.4c-0.7-0.6-1-1.5-1-2.4c-0.2-1.7-0.3-3.5-0.3-5.2c0-0.4,0-0.9-0.1-1.3c-0.2-0.5-0.4-1-0.6-1.4
		c0-0.7,0.1-1.4,0.4-2c0.1-0.6,0.1-1.3,0-1.9c-0.1-0.9-0.2-1.9-0.4-2.8c-0.1-1.3,0-2.6,0.3-3.9c0.1-1.2,0-2.5-0.3-3.7
		c0,1-0.1,2-0.4,2.9c-0.1,0.5-0.4,0.9-0.5,1.4c-0.6,2.1,0.7,4.3,0.5,6.5c-0.2,1-0.4,2-0.4,3.1c0.1,0.7,0.4,1.4,0.7,2.1
		c0.3,0.7,0.3,1.5,0,2.2c-0.9,1.8-0.2,4.2,0.6,6.1c0.2,0.3,0.3,0.7,0.4,1c0.1,0.9,0.2,1.7,0.1,2.6c-0.5,0.1-1-0.1-1.4-0.4
		c-0.1-0.1-0.2-0.3-0.4-0.4c-0.4-0.3-0.8-0.6-1.2-0.8c-0.3-0.1-0.6-0.2-0.9-0.2c-0.3,0.1-0.6,0.3-0.8,0.5c-0.3,0.3-0.6,0.5-0.9,0.7
		c-0.1,0.1-0.3,0.2-0.5,0.2c-0.2,0-0.3-0.1-0.4-0.2c0,0,0-0.1-0.1-0.1c-0.1-0.9-0.2-1.8-0.2-2.7c0-1.5-1.8-2.6-2.1-4.1
		c-0.2-1.2,0.2-2.5,0-3.7c-0.1-0.6-0.2-1.3-0.2-1.9c0-0.4,0.1-0.8,0.1-1.2c0-0.5,0-0.9,0-1.4l-0.1-1.4c0-1.4-0.3-2.8-0.7-4.1
		c-0.6-1.5-1-3.1-1.1-4.7c-0.1-1,0-2.1-0.1-3.1c-0.2-0.9-0.3-1.8-0.3-2.8c0.1-0.7,0.3-1.4,0.3-2.1c0-1.4-0.3-2.8-0.8-4
		c-0.5-1.3-0.6-2.7-0.2-4.1c0.1-0.2,0.2-0.4,0.4-0.5c0.2-0.1,0.5-0.2,0.7-0.2c5-1,10.1-1.4,15.2-1
		C138.2,143.1,139,143.4,139.8,143.8L139.8,143.8z"/>
	<circle class="st6" cx="123.2" cy="108.2" r="4.7"/>
	<path class="st6" d="M122.3,114c0.1,0.3,0.1,0.5,0,0.8c-0.1,0.2-0.2,0.4-0.3,0.5c-0.5,0.6-1,1.1-1.5,1.6c0.3,0.6,0.8,1.1,1.4,1.4
		c0.6,0.3,1.3,0.4,1.9,0.6c0.6,0.2,1.4,0.1,1.9-0.3l2.6-1.6c0.4-0.2,0.8-0.5,1.1-0.8c0.5-0.5,0.7-1.1,0.8-1.8c0-0.1,0-0.3-0.1-0.3
		c-0.1-0.1-0.2-0.1-0.4-0.2c-0.9-0.3-1.7-0.9-2-1.8c-0.4-0.9-0.6-1.8-0.7-2.7l-2.8,1.4c-0.4,0.2-0.8,0.4-1.2,0.6
		c-0.3,0.1-0.8,0.2-1,0.5C121.6,112.5,122.2,113.5,122.3,114L122.3,114z"/>
	<path class="st2" d="M120.5,116.1c-0.4,0.3-0.7,0.7-0.9,1.2c-0.1,0.6-0.1,1.2,0.2,1.8c0.8,2.5,1.3,5,1.8,7.5
		c0.2,1.8,0.3,3.5,0.5,5.3c0.2,3.6,0.6,9.4,1.1,12.9c1.7-0.1,3.5-0.3,5.2-0.6c3.2-0.3,6.6,0.4,9.7-0.3c-0.8-3-1.5-8.2-2.3-11.2
		c-0.3-1.2-0.6-2.4-0.7-3.7c-0.1-0.9,0-1.8,0-2.7c0-1.7-0.1-3.5-0.2-5.2c0-2-0.3-4.1-0.7-6.1c0-0.3-0.1-0.5-0.3-0.7
		c-0.3-0.2-0.7-0.2-1-0.1c-1.1,0.1-2.1-0.1-3-0.7c-0.4-0.3-0.9-0.6-1.3-0.3c-0.2,0.2-0.3,0.4-0.3,0.6c-0.3,0.8-1,1.5-1.8,1.8
		c-0.8,0.3-1.7,0.5-2.6,0.5c-0.3,0.1-0.6,0-0.8-0.1c-0.4-0.2-0.4-1.2-1-1.2C121.6,114.9,120.9,115.9,120.5,116.1z"/>
	<path class="st3" d="M127.4,123.2c-1.1-1-1.6-2.5-2.3-3.8c-0.5-0.9-1.2-1.6-2-2.2c-0.4-0.3-0.8-0.6-1.1-0.9
		c-0.3-0.3-0.5-0.8-0.9-0.9c-0.4-0.1-0.7,0-1,0.3c-0.3,0.2-0.5,0.5-0.7,0.8c-1.2,1.3-3.4,1.5-4.4,2.9c-0.3,0.3-0.4,0.7-0.5,1.1
		c-0.3,2.2,0.3,4.3,1.6,6.1c0.2,0.4,0.6,0.7,1.1,0.9c-0.1,0.5,0,1.1,0.2,1.6c0.5,1.8,1.2,3.6,2,5.4c-0.2,0.7-0.3,1.4-0.4,2.1
		c-0.2,1.8,0,3.6-0.2,5.4c-0.2,1.4-0.6,2.9-0.6,4.3c0,0.2,0,0.5,0.2,0.6c0.1,0.1,0.2,0.1,0.3,0.1l3.6,0.1c2.1,0.1,4.2,0,6.2-0.3
		c0.3,0,0.5-0.1,0.8-0.2c0.6-0.5,1-1.2,1-2c0.1-1,0.2-2,0.2-3.1c0.4,1.4,0.9,2.8,2.3,3.4c0.7,0.3,1.5,0.3,2.2,0.3
		c1.6-0.1,3.3-0.2,4.9-0.5c0.4,0,0.7-0.2,0.7-0.6c0-0.1,0-0.1,0-0.2l0-1.6c0-3.2-0.8-6.3-1.1-9.5c0-1-0.1-2-0.3-3
		c-0.1-0.4-0.2-0.8-0.3-1.2c-0.1-0.4-0.1-0.8-0.1-1.2l-0.2-3.2c-0.1-1.5-0.3-2.9-0.4-4.4c-0.1-1.4-0.3-2.9-0.6-4.3
		c-0.2-0.9-0.8-1.9-1.7-2c-0.5,0-1,0.1-1.4,0.3c-1.1,0.4-2.4,0.4-3.5,0c-0.4-0.1-0.7-0.2-1.1-0.3c-0.4-0.1-0.8,0.1-1,0.4
		c-0.1,0.2-0.2,0.5-0.1,0.8C128.5,117.5,128.1,120.4,127.4,123.2L127.4,123.2z"/>
	<path class="st2" d="M122.7,123.3c-1.3-1.5-2.8-2.8-4.4-3.8c-0.7-0.4-1.4-0.6-2.2-0.5c-0.8,0.1-1.4,0.8-1.4,1.6
		c0.1,0.5,0.2,0.9,0.4,1.4c0,0.5,0.1,1.1,0.1,1.6c0.1,0.3,0.3,0.6,0.6,0.9l2.1,2.4c0.8,1.1,1.8,2,2.9,2.8c1.1,0.8,2.5,1,3.8,0.5
		c0.9-0.4,1.6-1.1,2.1-1.9c0.5-0.8,0.9-1.7,1.3-2.5c0.8-1.3,1.7-2.5,2.9-3.5c-0.7-0.1-1.3-0.4-1.8-0.9c-0.1-0.2-0.2-0.3-0.3-0.5
		l-0.5-1c-0.3,0-0.6,0.1-0.9,0.3c-0.2,0.2-0.4,0.5-0.7,0.7c-0.4,0.3-1,0.4-1.3,0.8c-0.1,0.2-0.3,0.3-0.4,0.5
		C124.5,122.8,123.7,123.3,122.7,123.3L122.7,123.3z"/>
	<path class="st6" d="M131,117.2c1-1.8,1-4.1,1.2-6.1c0-0.5,0.2-1.1,0.6-1.5c0.7-0.6,1.6-0.8,2.5-0.6c0.2,0,0.6,0.2,0.6,0.4
		c0,0.1-0.1,0.2-0.1,0.2c-0.8,1.1-1.3,2.4-1.4,3.8c0.5,0.3,1.2-0.3,1.6,0c0.3,0.2,0.2,0.7,0,1.1c-0.4,0.8-0.8,1.6-1.2,2.4
		c-0.3,0.7-0.8,1.4-1.3,1.9c-0.4,0.3-0.8,0.6-1.2,1c-0.9,0.8-1.4,2-2.3,2.8c-0.1,0.1-0.2,0.1-0.3,0.2c-0.1,0-0.2-0.1-0.3-0.1
		c-0.5-0.4-0.8-0.8-1.1-1.3c-0.3-0.6-0.3-0.8,0.2-1.3C129.4,119.3,130.3,118.4,131,117.2L131,117.2z"/>
	<path class="st3" d="M121.1,122.1c0.2,0.1,0.4,0.2,0.6,0.1c0.1,0,0.2-0.1,0.2-0.2c0.3-0.4,0.6-0.9,0.8-1.4c0-0.1,0.1-0.1,0.1-0.2
		c0-0.2-0.2-0.3-0.3-0.4c-0.8-0.5-1.7-0.9-2.6-1.2c-0.8-0.3-1.6-0.5-2.4-0.5c-0.6,0-1.2,0.3-1.6,0.8c-0.6,0.8,0.4,1,1,1.3
		C118.2,120.8,119.7,121.4,121.1,122.1L121.1,122.1z"/>
	<path class="st4" d="M120.1,127c0,0.1,0,0.3,0.1,0.4c0.1-0.4,0-0.8,0.1-1.3c0.1-0.6,0.7-1.1,0.8-1.7
		C120,124.2,120.2,126.4,120.1,127L120.1,127z"/>
	<path class="st2" d="M119,108.9c0.7-0.6,0.3-1.9,0.8-2.7c0.3-0.4,0.8-0.7,1.3-0.9c0.6-0.3,1.2-0.4,1.9-0.5c0.6-0.1,1.3,0.2,1.7,0.6
		c0.2,0.2,0.3,0.5,0.5,0.7c0.4,0.5,1.2,0.8,1.8,0.6c0.4-0.1,0.8-0.4,0.8-0.8c0-0.2-0.2-0.5-0.3-0.6l-0.8-0.9c-0.8-1.2-2-2-3.4-2.4
		c-1-0.1-2,0-2.9,0.4c-0.4,0.1-0.8,0.3-0.9,0.7c-0.1,0.3,0,0.6,0,0.8c-0.1,0.5-0.8,0.7-1.1,1.1s-0.2,1-0.3,1.5
		c-0.2,0.5-0.3,1-0.4,1.5c0,0.3,0.2,0.9,0.5,1S118.8,108.6,119,108.9L119,108.9z"/>
	<path class="st10" d="M127.5,105.6c-0.2-1.3-0.8-2.5-1.5-3.6c-0.7-1-1.6-1.7-2.8-2.2c-1.1-0.4-2.4-0.3-3.4,0.3
		c-0.8,0.5-1.4,1.3-1.7,2.2c-0.9,1.6-0.9,3.5-0.2,5.2c0.3-0.4,0.9-0.2,1.5-0.4c0.6-0.3,1.3-0.6,1.8-0.9
		C123.1,105.4,125.5,106,127.5,105.6L127.5,105.6z"/>
	<path class="st4" d="M118.3,105.5c-0.1-0.5,0-1.1,0.3-1.5c0,0,0.1-0.1,0.2-0.1c0.1,0,0.1,0.1,0.1,0.1c0.2,0.3,0.4,0.7,0.6,1.1
		C119,105,118.5,105.2,118.3,105.5"/>
	<path class="st4" d="M125.2,104.1l-0.1-1c0-0.1,0-0.2,0-0.3c0.1-0.1,0.3-0.2,0.4-0.1c0.1,0.1,0.3,0.2,0.3,0.3
		c0.2,0.4,0.4,0.8,0.6,1.2c-0.5-0.1-0.9-0.1-1.4,0"/>
	<path class="st3" d="M86.2,188.1c0.1,0.5-0.2,0.9-0.7,1c0,0,0,0-0.1,0c-0.8,0.2-1.6,0.6-2.2,1.2c-0.6,0.6-0.6,1.6,0,2.3
		c0,0,0,0,0,0c0.3,0.2,0.8,0.3,1.2,0.3c1.3,0.2,2.7,0,3.9-0.5c0.8-0.4,1.7-1.1,2.6-1c0.5,0,1,0.3,1.4,0s0.6-0.8,0.6-1.4
		c0-1.1-0.2-2.1-0.5-3.2c-0.7-0.2-1.4-0.3-2.1-0.3l-2.2-0.3c-0.4-0.1-1.3-0.4-1.7,0S86.2,187.7,86.2,188.1L86.2,188.1z"/>
	<path class="st3" d="M99.6,180.9c0.1,0.5,0.2,1,0.5,1.5c0.2,0.8,0.8,1.5,1.5,2c0.7,0.3,1.6,0.3,2.2-0.1c0.3-0.1,0.6-0.3,0.8-0.6
		c0.2-0.4,0.3-0.8,0.3-1.3c0.1-1.1-0.1-2.3-0.6-3.3c-0.4-0.9-1.2-1.6-1.2-2.6l-2.6,0.5c-0.1,0-0.3,0.1-0.4,0.1
		c-0.1,0.1-0.1,0.2-0.2,0.3C99.5,178.6,99.5,179.8,99.6,180.9L99.6,180.9z"/>
	<path class="st3" d="M67.9,153.2c-0.2,0.9,0,1.9,0.4,2.8c0.5,0.8,1.5,1.3,2.4,1c0.1,0,0.2-0.1,0.2-0.2c0-0.1,0-0.2,0-0.3
		c-0.4-1-0.4-2.2,0.1-3.2c0.1-0.1,0.2-0.3,0.3-0.2c0.1,0,0.1,0.1,0.2,0.1c0.1,0.2,0.2,0.5,0.2,0.8c0,0.3-0.1,0.5,0,0.8
		c0.1,0.2,0.3,0.5,0.6,0.4c0.1-0.1,0.2-0.2,0.3-0.4c0.5-1.9,0.5-4,0.1-5.9c0-0.2-0.1-0.3-0.3-0.3c0,0-0.1,0-0.1,0
		c-1.4-0.1-2.1-0.5-2.9,0.8C68.5,150.5,68,151.8,67.9,153.2L67.9,153.2z"/>
	<path class="st2" d="M84,148.4c-0.9,2.7-1.1,5.6-0.6,8.4l0.3,2.5c0.1,0.9,0.2,1.7,0.3,2.6c0.1,0.4,0.1,0.9,0.2,1.3
		c0,0.4-0.1,0.9-0.2,1.3c-0.2,0.9-0.3,1.8-0.3,2.7c0,1.5,0.1,2.9,0.2,4.4c0.2,2.9,0.2,5.8-0.1,8.7c-0.1,0.8,0.1,1.6,0.5,2.3
		c0.2,0.2,0.3,0.4,0.4,0.7c0.2,0.7-0.3,1.3-0.4,2c-0.2,1.1,0.6,2.2,1.7,2.3c0,0,0,0,0,0c2.3,0.3,4.7,0.1,6.8,1.2
		c0.2-0.6-0.3-1.4,0-2c0.2-0.4,0.5-0.7,0.8-1c0.4-0.5,0.5-1.1,0.5-1.8c0-0.8-0.1-1.6-0.4-2.4c-0.3-0.6-0.5-1.3-0.6-2
		c0.1-0.3,0.1-0.7,0-1c-0.1-0.2-0.2-0.3-0.4-0.5c-0.9-1-1.4-2.2-1.5-3.4c-0.1-1.3-0.1-2.6,0.1-3.8c0-1.2,0.4-2.4,1.1-3.4
		c-0.4-2.9-0.2-5.7,0.6-8.5c0.1-0.2,0.2-0.5,0.5-0.6c0.2,0,0.4,0.1,0.6,0.2c0.4,0.5,0.7,1,0.9,1.6c0.3,0.6,0.4,1.3,0.3,2
		c-0.1,0.3-0.2,0.5-0.3,0.8c-0.2,0.6-0.1,1.2,0.1,1.7c0.1,0.2,0.2,0.4,0.2,0.6c0,0.2-0.1,0.4-0.2,0.6c-0.2,0.7-0.1,1.4,0.2,2.1
		c0.4,0.6,0.8,1.2,1.4,1.7c-0.3,1.1-0.2,2.3,0.2,3.4c0.1,0.1,0.1,0.2,0,0.3c-0.1,0.1-0.2,0.1-0.3,0.2c-0.3,0.2-0.1,0.7,0.1,1
		c0.5,0.9,1.1,1.7,1.8,2.4c0.6,0.7,0.5,2,1.4,2.3c0.4,0.1,0.7,0.1,1.1,0c0.9,0,1.7-0.4,2.2-1.1c0.1-0.3,0.3-0.6,0.5-0.9
		c0.3-0.2,0.6-0.3,0.8-0.6s0-0.6,0-1s0.3-0.6,0.4-0.9c0.2-0.8-0.7-1.4-0.8-2.2c-0.2-1.2,1.3-2,1.2-3.2c-0.1-2.5-0.2-5.1-0.3-7.6
		c-0.2-2.3-0.2-4.5-0.1-6.8c0.2-1.4,0.2-2.8-0.2-4.2c-0.9-1.8-2.7-3-4.8-3.1c-2-0.1-4,0.1-5.9,0.6C90.6,148.8,87.3,148.8,84,148.4
		L84,148.4z"/>
	<path class="st2" d="M91.6,124.3c-0.6,0-1.3-0.1-1.9-0.2c-0.6-0.1-1.2-0.5-1.5-1c-0.2-0.3-0.3-0.7-0.7-0.9
		c-0.6-0.3-1.2,0.2-1.7,0.7c-0.4,0.4-0.9,0.8-1.4,1.1c-0.6,0.3-1.3,0.4-1.9,0.8c-0.5,0.3-0.9,0.8-1.2,1.3l-4.1,5.6
		c-1.7,2.3-3.1,4.7-4.6,7.1c-1.1,2.1-2.1,4.4-2.9,6.7c-0.1,0.1-0.1,0.3-0.1,0.4c0.1,0.1,0.2,0.3,0.4,0.2c-0.4,0.4-0.1,1.2-0.2,1.8
		c-0.1,0.4-0.4,0.8-0.7,1.1c0.6-0.1,1.3,0,1.9,0.1c0.6,0.2,1.3,0.5,1.8,0.9c0.4-0.1,0.3-0.7,0.6-0.9c0.2-0.1,0.4-0.1,0.6-0.2
		c0.8-0.1,1.1-1.1,1.7-1.6c0.5-0.4,1.2-0.6,1.7-1c0.8-0.7,1-1.9,1.5-2.9c0.4-0.9,1-1.6,1.3-2.4c0.2-0.6,0.4-1.1,0.6-1.7
		c0.6-0.8,1.4-1.4,2.3-1.7c0.5-0.3,1.2-0.5,1.8-0.5c-0.1,1.3-0.1,2.7,0.1,4c0.1,0.5,0.2,0.9,0.4,1.4c0.5,2.1,0.7,4.2,0.7,6.4
		c1.3-0.3,2.7-0.5,4.1-0.5c1.1,0,2.1,0.1,3.2,0.1c1.3,0,2.6-0.3,3.8-0.4c1.3-0.1,2.6,0.1,3.8,0.6c-0.1-1.8,0-3.7,0.2-5.5l0.3-2.9
		c0.1-0.8,0.2-1.7,0.4-2.5c0.2-0.7,0.4-1.3,0.6-2c0.5-2.4,0.7-4.8,0.4-7.2c-0.1-1.3-0.5-2.5-1.1-3.6c-0.2-0.4-0.4-0.8-0.7-1.2
		c-1.4-1.9-3.7-3-6-2.8c-0.1,0-0.3,0-0.4,0.1c-0.2,0.2-0.4,0.4-0.6,0.7C93.5,122.8,92.6,123.7,91.6,124.3L91.6,124.3z"/>
	<path class="st4" d="M85.3,112.1c0.1,0,0.2,0.1,0.2,0.2c0.2,0.4,0.4,0.8,0.6,1.2c-0.3,0.1-0.9,0.2-1.1-0.2
		C84.9,113.1,85,112.1,85.3,112.1z"/>
	<path class="st4" d="M91.9,111.4c-0.1,0.1-0.2-0.1-0.2-0.2v-1.1c0,0,0-0.1,0-0.1c0,0,0.1,0,0.1,0c0.2,0,0.4,0.2,0.6,0.4
		c0.2,0.3,0.4,0.6,0.6,1l-1.2-0.1"/>
	<path class="st3" d="M92.2,134.2l-1.5-3.2c-0.2-0.4-0.4-0.9-0.6-1.4c-0.2-0.6-0.2-1.1-0.4-1.7c-0.5-1.9-1.8-3.4-2.5-5.3
		c0-0.2-0.1-0.3-0.2-0.4c-0.2-0.1-0.4-0.2-0.6-0.1c-0.9,0.3-1.7,0.7-2.4,1.2c-0.4,0.2-0.8,0.3-1.2,0.5c-0.4,0.2-0.7,0.5-0.8,0.9
		c0,0.5,0.1,0.9,0.3,1.3c0.7,1.8,1.1,3.8,1,5.8c0.1,1.3-0.1,2.6-0.8,3.8c-1.5,2-0.5,5,0,7.5c0.1,0.3,0.1,0.6,0.2,0.9
		c0,0.4,0.1,0.8,0.1,1.2c0.1,1.3-0.1,2.6-0.6,3.8c0.5,0.3,1.1,0.5,1.7,0.5c1.7,0.2,3.4,0.4,5.1,0.5c0.5,0.1,1.1,0,1.6-0.1
		c1.3-0.3,2.2-1.5,2.2-2.9c0,0.8,0.3,1.6,0.8,2.2c0.6,0.5,1.4,0.7,2.2,0.7c2.2,0.1,4.5,0,6.7-0.2c0.1,0,0.3,0,0.4-0.1
		c0.4-0.2,0.5-0.8,0.4-1.3c-0.1-0.9-0.1-1.8-0.2-2.7c-0.1-0.6-0.1-1.1-0.1-1.7c0-0.6,0.1-1.2,0.3-1.8c0.4-1.8,0.6-3.7,0.6-5.5
		c-0.1-0.5-0.1-0.9-0.1-1.4c0.1-1,0.6-2,0.5-3c-0.2-3-0.6-6-1.4-9c-0.1-0.5-0.4-1-0.8-1.4c-0.6-0.4-1.4-0.2-2.1-0.4
		c-0.3-0.1-0.6-0.3-0.9-0.5c-0.6-0.4-1.3-0.6-2-0.6c-0.5-0.1-1.1,0.1-1.4,0.5c-0.2,0.2-0.3,0.5-0.3,0.8c-0.4,1.8-0.9,3.5-1.4,5.3
		l-0.5,1.7l-1.3,4.5C92.3,133.6,92.3,133.7,92.2,134.2L92.2,134.2z"/>
	<path class="st2" d="M107.3,130.2c0.3-0.3,0.6-0.5,0.8-0.7c0.9-0.5,1.8-0.8,2.7-1.1c0.9-0.3,1.7-0.9,2.2-1.8
		c0.2-0.6,0.2-1.2,0.2-1.8c0-0.2,0-0.5-0.1-0.7c-0.1-0.2-0.3-0.4-0.5-0.5c-1.3-0.8-2.9-1.1-4.4-0.9c-3.4,0.2-6.7,1-9.7,2.4
		c-0.2,0.1-0.3,0.2-0.4,0.3c-0.1,0.1-0.1,0.3-0.1,0.4c0,0.9,0.1,1.7,0.3,2.5c0.4,1,1.2,1.9,1.6,2.9c0.2,0.5,0.2,1,0.3,1.4
		c0.1,0.5,0.4,0.9,0.8,1.2c1.2,0.7,2.2-0.2,3-0.9L107.3,130.2z"/>
	<g id="Toru1">
		<path class="st7" d="M119,141.7c-0.4,2.6-2.8,4.3-5.4,3.9c-1.6-0.3-2.9-1.3-3.5-2.6c-0.4-0.8-0.6-1.8-0.4-2.7
			c0.4-2.6,2.8-4.3,5.4-3.9c1,0.2,1.9,0.6,2.5,1.3c0.2,0.2,0.4,0.4,0.5,0.6C118.8,139.2,119.2,140.5,119,141.7z"/>
		<path class="st8" d="M118.3,138.4c-0.7-0.7-1.6-1.1-2.6-1.3c-2.6-0.4-5,1.4-5.5,4c-0.2,1,0,2,0.4,2.8l-12.9-17.7l-16.2-22.3
			l-0.1-0.1c-0.9-1-1.3-2.4-1.1-3.8c0.4-2.6,2.8-4.3,5.4-3.9c1.3,0.2,2.4,0.9,3.1,1.9c0.2,0.2,0.3,0.4,0.4,0.7l0.1,0L118.3,138.4z"
			/>
	</g>
	<path class="st11" d="M88,121.5c-0.3,0.8-1.1,1.2-1.9,1.2c-0.1,0.7,0.2,1.4,0.7,1.9c2,2.3,5,3.3,7.9,2.7c0.6-0.1,1.1-0.3,1.6-0.7
		c0.6-0.5,1.1-1.3,1.2-2.1c0.1-0.8,0.2-1.6,0.1-2.4c0-0.2,0-0.3-0.1-0.5c-0.1-0.1-0.3-0.1-0.4-0.1c-1,0-2-0.2-2.9-0.6
		c-0.9-0.4-1.4-1.5-1.1-2.5c-0.7,0.1-1.3,0.2-2,0.2c-0.7,0.1-1.4,0.2-2.1,0.3c-0.3,0-0.7,0.1-1,0.2c-0.4,0.2-0.3,0.1-0.2,0.5
		C88.1,120.3,88.2,120.9,88,121.5L88,121.5z"/>
	<polygon class="st8" points="101.3,126.2 99.5,127.2 99.5,127.3 98.8,127.6 97.3,125.6 93.5,120.2 98,119.4 99.8,123.2 
		100.6,124.8 	"/>
	<g>
		<path class="st9" d="M109.7,141.4c0.8-6,6.6-4.6,6.6-4.6"/>
		<path class="st9" d="M107.3,138.1c0.8-6,6.6-4.6,6.6-4.6"/>
		<path class="st9" d="M104.9,134.8c0.8-6,6.6-4.6,6.6-4.6"/>
		<path class="st9" d="M102.5,131.5c0.8-6,6.6-4.6,6.6-4.6"/>
		<path class="st9" d="M100.1,128.3c0.8-6,6.6-4.6,6.6-4.6"/>
		<path class="st9" d="M97.7,125c0.8-6,6.6-4.6,6.6-4.6"/>
		<path class="st9" d="M95.4,121.7c0.8-6,6.6-4.6,6.6-4.6"/>
		<path class="st9" d="M93,118.4c0.8-6,6.6-4.6,6.6-4.6"/>
		<path class="st9" d="M90.6,115.1c0.8-6,6.6-4.6,6.6-4.6"/>
		<path class="st9" d="M88.2,111.9c0.8-6,6.6-4.6,6.6-4.6"/>
		<path class="st9" d="M85.8,108.6c0.8-6,6.6-4.6,6.6-4.6"/>
		<path class="st9" d="M83.4,105.3c0.8-6,6.6-4.6,6.6-4.6"/>
		<path class="st9" d="M81.1,102c0.8-6,6.6-4.6,6.6-4.6"/>
	</g>
	<path class="st12" d="M98.8,127.6l-1.4-1.9c-0.1-0.1-0.1-0.2,0-0.4c0.3-0.6,0.7-1.3,1-1.5c0.2-0.2,0.8-0.4,1.3-0.7
		c0.9-0.5,1.8-0.9,1.8-0.9l2.6-0.5c0,0-3.2,1.1-4.4,3.2"/>
	<path class="st3" d="M97.7,121.3c-1,0.5-2.1,1.1-2.4,2.3c-0.2,0.6,0.1,1.2,0.7,1.4c0.1,0,0.3,0.1,0.4,0.1c0.5,0,1-0.1,1.4-0.3
		l5.9-2.3c0.2-0.1,0.4-0.1,0.4-0.3c0-0.1,0-0.2-0.1-0.3c-0.2-0.5-0.4-1.5-0.8-1.8c-0.3-0.3-1-0.2-1.3-0.1
		C100.4,120.1,99,120.6,97.7,121.3L97.7,121.3z"/>
	<path class="st2" d="M85.8,117.5c0.1-0.3,0.5-0.4,0.7-0.6c0.4-0.4,0.2-1.2,0.3-1.8c0.2-0.9,0.8-1.6,1.7-1.9
		c0.8-0.3,1.7-0.3,2.6-0.2c0.4,0,0.8,0.2,1.2,0.4c0.2,0.1,0.3,0.3,0.4,0.4c0.5,0.3,1.3,0.2,1.6-0.4c-1-1.2-2.2-2.6-3.8-2.9
		c-0.5-0.1-1.1-0.2-1.6-0.2c-0.7-0.1-1.5,0-2.2,0.2c-0.9,0.4-1.6,1.2-1.9,2.2c-0.3,0.9-0.4,1.9-0.5,2.9c-0.1,0.7-0.1,1.3,0,2
		c0.1,0.9,0.5,1.8,1,2.5c0.1,0.1,0.2,0.2,0.3,0.3C87,120.9,85.7,117.7,85.8,117.5L85.8,117.5z"/>
	<path class="st10" d="M94.1,112.7c-0.3-1.4-1.1-2.6-2.2-3.4c-0.8-0.8-1.8-1.4-2.9-1.8c-1.1-0.4-2.3-0.2-3.3,0.4
		c-0.7,0.6-1.3,1.3-1.6,2.2c-0.5,1-0.7,2.1-0.7,3.2c0,1.1,0.6,2.2,1.6,2.8c0.4-0.5,0.9-0.8,1.5-1C89,114.2,91.5,113.3,94.1,112.7z"
		/>
	<circle class="st11" cx="89.9" cy="115.9" r="4.7"/>
	<path class="st2" d="M103.2,122.8c1,0,2,0.2,3,0.5c1,0.3,1.8,0.9,2.5,1.7c0.2,0.2,0.3,0.5,0.4,0.8c0.1,0.3,1,0.5,0.8,0.7
		c0.6-0.1,0.5,0.2,1.1,0.2c0.7,0,1.3-0.2,1.7-0.7c0.3-0.4,0.4-0.9,0.3-1.4c0-0.3-0.1-0.7-0.2-1c-0.4-0.6-0.9-1-1.6-1.2l-5.2-2.4
		c-0.3-0.2-0.6-0.3-1-0.3c-0.3,0-0.6,0-0.9,0l-2.3,0.3c1,0.7,1.7,1.9,1.6,3.1"/>
</g>
</svg>
