<svg id="bc0e4e3b-3361-4950-b819-36c1e5b1b6c8" data-name="Layer 1" xmlns="http://www.w3.org/2000/svg" viewBox="0 0 343.01 211.1"><title>hero-svg</title><path d="M343,135.5a70,70,0,0,1-2.1,17c-.5,1.9-1,3.7-1.6,5.5a51.81,51.81,0,0,1-2.6,6.5,30.13,30.13,0,0,1-1.6,3.1,42.75,42.75,0,0,1-3.5,17,44.27,44.27,0,0,1-21.3,22,46.36,46.36,0,0,1-19,4.4H65.12a56.64,56.64,0,0,1-28.7-7.7l-.1-.1c-1.2-.7-2.4-1.5-3.6-2.3a62.45,62.45,0,0,1-7.5-6.1A53.31,53.31,0,0,1,17,184.7a54.83,54.83,0,0,1-8.3-28.9A68.11,68.11,0,0,1,0,122a66.75,66.75,0,0,1,13.5-40.9,70.24,70.24,0,0,1,5.7-6.4,43.17,43.17,0,0,1,6.6-5.4,49.64,49.64,0,0,1,5.8-3.5c.8-.4,1.7-.8,2.5-1.2a21.85,21.85,0,0,1,2.3-.9c.9-.4,1.9-.7,2.8-1s1.9-.6,2.8-.8c1.4-.3,2.8-.6,4.2-.8,1.2-.2,2.3-.3,3.5-.4a25.28,25.28,0,0,1,2.8-.1H53c1,0,2.1,0,3.1.1a4.88,4.88,0,0,0,.3-.7c.4-.8.8-1.5,1.3-2.3h0a.76.76,0,0,0,.2-.4A17.39,17.39,0,0,1,59,55.5a5.58,5.58,0,0,1,.5-.8c0-.1.1-.1.1-.2.2-.3.3-.6.5-.9.9-1.4,1.8-2.9,2.8-4.2l.2-.4c.2-.2.3-.4.5-.6.4-.6.8-1.1,1.2-1.7l.9-1.2L68,42.6c.8-1,1.6-1.9,2.5-2.9.1-.1.2-.3.4-.4l1.2-1.3.2-.2a1.76,1.76,0,0,0,.4-.5c.7-.7,1.3-1.4,2-2.1a103.89,103.89,0,0,1,11.2-9.7,1.76,1.76,0,0,0,.5-.4c.7-.6,1.5-1.1,2.2-1.6a116,116,0,0,1,12.9-8.1c.3-.2.6-.3.9-.5,4-2.1,8.2-4,12.4-5.7,2.3-.9,4.7-1.8,7-2.6l4.8-1.5c2.5-.7,5-1.4,7.6-1.9A134.44,134.44,0,0,1,157,.1c2.3-.1,4.7-.2,7.1-.2a135.64,135.64,0,0,1,34.1,4.3,1.15,1.15,0,0,0,1.1.6h1a6.47,6.47,0,0,1,1.3.4c2.4.7,4.7,1.4,7,2.2l.6.2a128.65,128.65,0,0,1,16.6,7.3,118.39,118.39,0,0,1,13.9,8.6c.7.5,1.4,1,2,1.5l2.4-1.5a47.48,47.48,0,0,1,33-5.2,51,51,0,0,1,25.5,14.4,59.06,59.06,0,0,1,7.6,9.7,5.58,5.58,0,0,1,.5.8,67.8,67.8,0,0,1,4.9,9.7c0,.1.1.2.1.4a83.55,83.55,0,0,1,3,9.7c0,.2.1.3.1.5a64.79,64.79,0,0,1,1.4,9.7v.3c.1,1.7.2,3.4.2,5.1s0,3.1-.1,4.6v.5c0,.4-.1.9-.1,1.3a57.65,57.65,0,0,1,6.2,5.9c.8.9,1.7,1.9,2.5,2.9a70.72,70.72,0,0,1,6.4,9.7,68.67,68.67,0,0,1,7.7,32Z" transform="translate(-0.02 0.1)" fill="#116d3b" opacity="0.1" style="isolation:isolate"/><path d="M310.12,205.5c0,2-6.9,3.9-18.8,5.4H65.12a56.64,56.64,0,0,1-28.7-7.7l-.1-.1c3.4-1.2,9.6-2.4,18.1-3.5l.4-.1c3.8-.4,8-.9,12.6-1.3h.4q5.55-.45,11.7-.9h.4l4.9-.3.6-.1c12.1-.8,25.9-1.4,40.8-1.8h0c2.1-.1,4.2-.1,6.3-.1,2.4-.1,4.8-.1,7.2-.1,1.9,0,3.7-.1,5.6-.1h.1c8.5-.1,17.3-.2,26.3-.2,22.2,0,43.2.4,61.8,1.1h.1c2.9.1,5.7.2,8.4.4l2.3.1c3.1.2,6.1.3,9,.5,34.4,2.1,56.8,5.2,56.8,8.8Z" transform="translate(-0.02 0.1)" fill="#116d3b" opacity="0.1" style="isolation:isolate"/><g opacity="0.2"><path d="M198.15,193.32a2.77,2.77,0,0,1-.1.9l-6.1-.9v-.2a5.53,5.53,0,0,1,.7-2.5,2.79,2.79,0,0,1,3.6-1.3,2.54,2.54,0,0,1,1.3,1.4,6.51,6.51,0,0,1,.6,2.6Z" transform="translate(-0.02 0.1)" fill="#3f3d56"/><ellipse cx="195.19" cy="188.31" rx="4.1" ry="3.1" transform="translate(0.79 377.56) rotate(-88.19)" fill="#3f3d56"/><ellipse cx="195.33" cy="183.29" rx="4.1" ry="3.1" transform="translate(5.95 372.84) rotate(-88.19)" fill="#3f3d56"/><ellipse cx="195.47" cy="178.36" rx="4.1" ry="3.1" transform="translate(11.02 368.2) rotate(-88.19)" fill="#3f3d56"/><ellipse cx="195.62" cy="173.33" rx="4.1" ry="3.1" transform="translate(16.18 363.47) rotate(-88.19)" fill="#3f3d56"/><path d="M185.05,138.82a16.29,16.29,0,0,1-1.1-1.7l8.2-1.1-8.9-.2a15.36,15.36,0,0,1,.2-11.9l11.7,6.5-10.8-8.3a15,15,0,0,1,25.4,15.8c-.4.6-.8,1.1-1.2,1.7a15.57,15.57,0,0,1,1.6,2.8l-10.8,5.2,11.5-3.4a14.87,14.87,0,0,1-2.9,14,15,15,0,1,1-23.5-.7,15.3,15.3,0,0,1,.6-18.7Z" transform="translate(-0.02 0.1)" fill="#116d3b"/><path d="M211.45,148.92A14.52,14.52,0,0,1,208,158a15,15,0,1,1-23.5-.7c-1.9-2.6,27-10.1,27-8.4Z" transform="translate(-0.02 0.1)" opacity="0.1" style="isolation:isolate"/></g><g opacity="0.2"><path d="M153.89,193.32a2.77,2.77,0,0,1-.1.9l-6.1-.9v-.2a5.53,5.53,0,0,1,.7-2.5,2.79,2.79,0,0,1,3.6-1.3,2.54,2.54,0,0,1,1.3,1.4,6.51,6.51,0,0,1,.6,2.6Z" transform="translate(-0.02 0.1)" fill="#3f3d56"/><ellipse cx="150.92" cy="188.31" rx="4.1" ry="3.1" transform="matrix(0.03, -1, 1, 0.03, -42.08, 333.31)" fill="#3f3d56"/><ellipse cx="151.07" cy="183.29" rx="4.1" ry="3.1" transform="translate(-36.92 328.59) rotate(-88.19)" fill="#3f3d56"/><ellipse cx="151.21" cy="178.35" rx="4.1" ry="3.1" transform="translate(-31.85 323.95) rotate(-88.19)" fill="#3f3d56"/><ellipse cx="151.35" cy="173.32" rx="4.1" ry="3.1" transform="matrix(0.03, -1, 1, 0.03, -26.69, 319.22)" fill="#3f3d56"/><path d="M140.79,138.82a16.29,16.29,0,0,1-1.1-1.7l8.2-1.1-8.9-.2a15.36,15.36,0,0,1,.2-11.9l11.7,6.5-10.8-8.3a15,15,0,0,1,25.4,15.8c-.4.6-.8,1.1-1.2,1.7a15.57,15.57,0,0,1,1.6,2.8l-10.8,5.2,11.5-3.4a14.87,14.87,0,0,1-2.9,14,15,15,0,1,1-23.5-.7,15.3,15.3,0,0,1,.6-18.7Z" transform="translate(-0.02 0.1)" fill="#116d3b"/><path d="M167.19,148.92a14.52,14.52,0,0,1-3.5,9.1,15,15,0,1,1-23.5-.7c-1.9-2.6,27-10.1,27-8.4Z" transform="translate(-0.02 0.1)" opacity="0.1" style="isolation:isolate"/></g><g opacity="0.2"><path d="M274.74,196.58a11,11,0,0,1-.2,1.8c-3.9-.6-7.8-1.2-11.8-1.7v-.5a9.23,9.23,0,0,1,1.4-4.8,5.3,5.3,0,0,1,7-2.4,5.48,5.48,0,0,1,2.5,2.7,9.29,9.29,0,0,1,1.1,4.9Z" transform="translate(-0.02 0.1)" fill="#3f3d56"/><ellipse cx="269.07" cy="186.82" rx="7.9" ry="6" transform="translate(73.83 449.96) rotate(-88.19)" fill="#3f3d56"/><ellipse cx="269.37" cy="177.22" rx="7.9" ry="6" transform="matrix(0.03, -1, 1, 0.03, 83.71, 440.97)" fill="#3f3d56"/><ellipse cx="269.68" cy="167.63" rx="7.9" ry="6" transform="translate(93.59 431.98) rotate(-88.19)" fill="#3f3d56"/><ellipse cx="269.66" cy="157.56" rx="7.9" ry="6" transform="translate(104.07 422.48) rotate(-88.28)" fill="#3f3d56"/><path d="M249.54,91.58a30.24,30.24,0,0,1-2.1-3.3l15.9-2.1-17.1-.4a28.69,28.69,0,0,1,.2-22.8l22.5,12.6-20.6-16.2a28.74,28.74,0,1,1,49.1,29.9,31.76,31.76,0,0,1-2.7,3.7,31.82,31.82,0,0,1,3.1,5.3l-20.8,10,22-6.6a28.58,28.58,0,0,1-5.5,26.8,28.75,28.75,0,1,1-45.2-1.4A28.85,28.85,0,0,1,249.54,91.58Z" transform="translate(-0.02 0.1)" fill="#116d3b"/><path d="M300.34,111a29.31,29.31,0,0,1-6.7,17.6,28.75,28.75,0,1,1-45.2-1.4c-3.7-5.1,52-19.4,51.9-16.2Z" transform="translate(-0.02 0.1)" opacity="0.1" style="isolation:isolate"/></g><path d="M45.92,197.1h7.4l5.5-88.5,53.9-90-2.3-2.5V9.7L52,106.5Z" transform="translate(-0.02 0.1)" fill="#f1c0c0"/><path d="M49.32,197.1h4l5.5-88.5,53.9-90-2.3-2.5-55.6,91.2Z" transform="translate(-0.02 0.1)" opacity="0.1" style="isolation:isolate"/><path d="M36.92,197.8l139.7,10.7h.1l135.2-8.3h.1v-5.7l-149-2.7-124.3-.1h-.9l-.1.6Z" transform="translate(-0.02 0.1)" fill="#f1c0c0"/><path d="M36.92,197.8l139.7,10.7h.1l135.2-8.3.1-.1v-5.5h0l-135.3,4.5-137.9-7.5h0l-.2.2-.7.5Z" transform="translate(-0.02 0.1)" opacity="0.1" style="isolation:isolate"/><path d="M36.92,197.8l139.7,10.7v-9.4l-138.1-7.3-.7.5Z" transform="translate(-0.02 0.1)" opacity="0.1" style="isolation:isolate"/><path d="M110.32,16l61.6,66.1L170,198.4l5.2.6h5.3l.6-112,115.4,38.5,2,68.6,4.2.5,1.4.2-3.3-74L180.32,78.5,114.22,9.8h-3.8Z" transform="translate(-0.02 0.1)" fill="#f1c0c0"/><path d="M180.72,84.9l.5,2.1,115.4,38.5,1.9,68.6,4.2.5-3.3-70.5Z" transform="translate(-0.02 0.1)" opacity="0.1" style="isolation:isolate"/><path d="M110.32,16l61.6,66.1L170,198.4l5.2.6,1.4-120.8L110.32,9.8Z" transform="translate(-0.02 0.1)" opacity="0.1" style="isolation:isolate"/><path d="M180.92,131.6l42.3,8.3h0l74.1,14.6,3.4-1.4v-.2l-.2-4.7L181,124.1Z" transform="translate(-0.02 0.1)" fill="#f1c0c0"/><path d="M223.32,140l74.1,14.6,3.4-1.4V153Z" transform="translate(-0.02 0.1)" opacity="0.1" style="isolation:isolate"/><path d="M226.12,102.1l1.1,63,.6,32.3,5.2-.2,3.3-.1-1-94.1-2.3-.8-.5-.2Z" transform="translate(-0.02 0.1)" fill="#f1c0c0"/><path d="M226.12,102.1h0l1.1,63,.6,32.3,5.2-.2V102Z" transform="translate(-0.02 0.1)" opacity="0.1" style="isolation:isolate"/><path d="M144.52,118.2l.9.6a9,9,0,0,1,.9,1c1.2,1.6,2.4,3.5,2.3,5.5a2.27,2.27,0,0,1-.6,1.6,3.39,3.39,0,0,1-1.9.5,3.78,3.78,0,0,1-2.1-.4c-.6-.4-1.2-1.1-1.9-1.1h-.3c-.3-.1-.3-.4-.5-.7s-.9-.3-1.4-.1a2.2,2.2,0,0,1-1.4.2.9.9,0,0,1-.6-.6,13.23,13.23,0,0,1-1.5-5.9c-.1-1.2-1.1-5.4,1.5-4.5a17.74,17.74,0,0,1,3.3,1.9Z" transform="translate(-0.02 0.1)" fill="#3f3d56"/><path d="M141.92,118.6a1.36,1.36,0,0,0,1.6-.1,2.75,2.75,0,0,0,.8-1.5c.3-.1.4.3.6.5.3.4,1,.4,1.3.8s.1.7.3,1a3.18,3.18,0,0,0,1,1,3.1,3.1,0,0,1,.6,1.3l.5,1.4a5.85,5.85,0,0,1,.4,1.9,2.11,2.11,0,0,1-.6,1.8,4.78,4.78,0,0,1-3.5.7,2.78,2.78,0,0,1-1.6-1.9,10.9,10.9,0,0,1-.3-2.6,9.51,9.51,0,0,0-.7-2.4c-.3-.6-1-1.5-.9-2.2.2,0,.3.2.5.3Z" transform="translate(-0.02 0.1)" fill="#3f3d56"/><path d="M142.92,115.6a5.07,5.07,0,0,1-.2-1.3,5.66,5.66,0,0,1,.8-2.5l-3.3.4a1.61,1.61,0,0,0-1.1.5,1.08,1.08,0,0,0,0,1.1,4.18,4.18,0,0,1,.4,1,2.77,2.77,0,0,0,.1.9c.1.2.3.4.4.6a27.14,27.14,0,0,1,2.4,3.5s2-1.6,1.9-2.1c-.1-.3-.6-.6-.8-.9a6.66,6.66,0,0,1-.6-1.2Z" transform="translate(-0.02 0.1)" fill="#be6f72"/><g id="ed50314b-885a-4355-8cb2-6509de13c2b6" data-name="Toru2"><path d="M171.82,104.3a6.78,6.78,0,0,1-5,6.6,5.82,5.82,0,0,1-1.9.3,6.91,6.91,0,0,1-6.9-6.9,6.69,6.69,0,0,1,4.8-6.5,7.11,7.11,0,0,1,2.1-.3A6.71,6.71,0,0,1,171.82,104.3Z" transform="translate(-0.02 0.1)" fill="#8d8d8d"/><path d="M166.92,110.9l-55,13.7a6.45,6.45,0,0,1-2,.3c-3.2,0-6.9-3.4-6.9-7.4a7.48,7.48,0,0,1,5-6.7c18.3-4.3,36.6-8.7,54.9-13a6.86,6.86,0,0,0,2.1,13.4Z" transform="translate(-0.02 0.1)" fill="#e7e7e7"/><path d="M158.82,99.6c-4.4,8.6,2.4,11,3,11.3" transform="translate(-0.02 0.1)" fill="none" stroke="#dedede" stroke-miterlimit="10" stroke-width="0.5"/><path d="M155,100.5c-4.4,8.6,2.4,11,3,11.3" transform="translate(-0.02 0.1)" fill="none" stroke="#dedede" stroke-miterlimit="10" stroke-width="0.5"/><path d="M151.22,101.5c-4.4,8.6,2.4,11,3,11.3" transform="translate(-0.02 0.1)" fill="none" stroke="#dedede" stroke-miterlimit="10" stroke-width="0.5"/><path d="M147.42,102.4c-4.4,8.6,2.4,11,3,11.3" transform="translate(-0.02 0.1)" fill="none" stroke="#dedede" stroke-miterlimit="10" stroke-width="0.5"/><path d="M143.62,103.4c-4.4,8.6,2.4,11,3,11.3" transform="translate(-0.02 0.1)" fill="none" stroke="#dedede" stroke-miterlimit="10" stroke-width="0.5"/><path d="M139.82,104.3c-4.4,8.6,2.4,11,3,11.3" transform="translate(-0.02 0.1)" fill="none" stroke="#dedede" stroke-miterlimit="10" stroke-width="0.5"/><path d="M136,105.3c-4.4,8.6,2.4,11,3,11.3" transform="translate(-0.02 0.1)" fill="none" stroke="#dedede" stroke-miterlimit="10" stroke-width="0.5"/><path d="M132.22,106.2c-4.4,8.6,2.4,11,3,11.3" transform="translate(-0.02 0.1)" fill="none" stroke="#dedede" stroke-miterlimit="10" stroke-width="0.5"/><path d="M128.42,107.2c-4.4,8.6,2.4,11,3,11.3" transform="translate(-0.02 0.1)" fill="none" stroke="#dedede" stroke-miterlimit="10" stroke-width="0.5"/><path d="M124.62,108.1c-4.4,8.6,2.4,11,3,11.3" transform="translate(-0.02 0.1)" fill="none" stroke="#dedede" stroke-miterlimit="10" stroke-width="0.5"/><path d="M120.82,109.1c-4.4,8.6,2.4,11,3,11.3" transform="translate(-0.02 0.1)" fill="none" stroke="#dedede" stroke-miterlimit="10" stroke-width="0.5"/><path d="M117,110c-4.4,8.6,2.4,11,3,11.3" transform="translate(-0.02 0.1)" fill="none" stroke="#dedede" stroke-miterlimit="10" stroke-width="0.5"/><path d="M113.22,111c-4.4,8.6,2.4,11,3,11.3" transform="translate(-0.02 0.1)" fill="none" stroke="#dedede" stroke-miterlimit="10" stroke-width="0.5"/><path d="M109.42,111.9c-4.4,8.6,2.4,11,3,11.3" transform="translate(-0.02 0.1)" fill="none" stroke="#dedede" stroke-miterlimit="10" stroke-width="0.5"/><path d="M105.62,112.9c-4.4,8.6,2.4,11,3,11.3" transform="translate(-0.02 0.1)" fill="none" stroke="#dedede" stroke-miterlimit="10" stroke-width="0.5"/></g><path d="M132.12,185.7a3.7,3.7,0,0,0-4.6-1,1.38,1.38,0,0,0-.4.3c-.3.4-.1,1-.1,1.5.1,1.2-.9,2.2-1.8,3.1a4.81,4.81,0,0,0-1.2,1.6,1.57,1.57,0,0,0,.5,1.8,1.88,1.88,0,0,0,.8.2,8.78,8.78,0,0,0,2.8.1,2.65,2.65,0,0,0,2.2-1.6,2.09,2.09,0,0,1,.4-.6c.5-.4,1.3.1,1.9-.2s.5-.6.5-1.1a7.16,7.16,0,0,0-1-4.1Z" transform="translate(-0.02 0.1)" fill="#116d3b"/><path d="M139,185.6a7.77,7.77,0,0,1,.4,3,2.49,2.49,0,0,1-.3,1.7,2.37,2.37,0,0,1-1.5.9,3.57,3.57,0,0,1-3.4-.9,3.33,3.33,0,0,1-.6-2.7c.1-.8.3-1.7-.3-2.3a1,1,0,0,0-.5-.4,1.23,1.23,0,0,1-.1-1.3,6.94,6.94,0,0,0,.5-1.3,15.6,15.6,0,0,1,4.3.3c.5.2.4.6.6,1.1a16.32,16.32,0,0,1,.9,1.9Z" transform="translate(-0.02 0.1)" fill="#116d3b"/><path d="M139.82,143.8a3.3,3.3,0,0,1,1.2,2.4c.3,2.5-.2,5-.3,7.5,0,3.5,1,7.1.1,10.5-.5,2-.1,4.4-.6,6.4l-.6,1.8a7.86,7.86,0,0,0,.4,4,4.25,4.25,0,0,1,.2,1.1,4.19,4.19,0,0,1-.4,1.6l-1.7,4.1c-.2.5-1,.5-1.5.6a3.64,3.64,0,0,1-2.7-.4,3.1,3.1,0,0,1-1-2.4,45.33,45.33,0,0,1-.3-5.2,5.7,5.7,0,0,0-.1-1.3c-.2-.5-.4-1-.6-1.4a4.48,4.48,0,0,1,.4-2,6.05,6.05,0,0,0,0-1.9,27,27,0,0,0-.4-2.8,12.86,12.86,0,0,1,.3-3.9,11.6,11.6,0,0,0-.3-3.7,9.25,9.25,0,0,1-.4,2.9c-.1.5-.4.9-.5,1.4-.6,2.1.7,4.3.5,6.5a15.46,15.46,0,0,0-.4,3.1,8.64,8.64,0,0,0,.7,2.1,2.8,2.8,0,0,1,0,2.2c-.9,1.8-.2,4.2.6,6.1a4.18,4.18,0,0,1,.4,1,11.33,11.33,0,0,1,.1,2.6,1.79,1.79,0,0,1-1.4-.4c-.1-.1-.2-.3-.4-.4a8.34,8.34,0,0,0-1.2-.8,2.92,2.92,0,0,0-.9-.2,2.18,2.18,0,0,0-.8.5,5.5,5.5,0,0,1-.9.7.76.76,0,0,1-.5.2.52.52,0,0,1-.4-.2.1.1,0,0,0-.1-.1,24.52,24.52,0,0,1-.2-2.7c0-1.5-1.8-2.6-2.1-4.1-.2-1.2.2-2.5,0-3.7a12.25,12.25,0,0,1-.2-1.9c0-.4.1-.8.1-1.2V171l-.1-1.4a14.1,14.1,0,0,0-.7-4.1,15.34,15.34,0,0,1-1.1-4.7c-.1-1,0-2.1-.1-3.1a12.65,12.65,0,0,1-.3-2.8,15.17,15.17,0,0,0,.3-2.1,10.57,10.57,0,0,0-.8-4,6.38,6.38,0,0,1-.2-4.1,1,1,0,0,1,.4-.5,1.85,1.85,0,0,1,.7-.2,55.37,55.37,0,0,1,15.2-1,7.2,7.2,0,0,1,2.6.8Z" transform="translate(-0.02 0.1)" fill="#3f3d56"/><circle cx="123.2" cy="108.3" r="4.7" fill="#be6f72"/><path d="M122.32,114a1.1,1.1,0,0,1,0,.8,2.19,2.19,0,0,1-.3.5c-.5.6-1,1.1-1.5,1.6a3.16,3.16,0,0,0,1.4,1.4,13.89,13.89,0,0,0,1.9.6,2.14,2.14,0,0,0,1.9-.3l2.6-1.6a4.44,4.44,0,0,0,1.1-.8,3,3,0,0,0,.8-1.8c0-.1,0-.3-.1-.3s-.2-.1-.4-.2a3,3,0,0,1-2-1.8,9,9,0,0,1-.7-2.7l-2.8,1.4-1.2.6c-.3.1-.8.2-1,.5-.4.6.2,1.6.3,2.1Z" transform="translate(-0.02 0.1)" fill="#be6f72"/><path d="M120.52,116.1a2.73,2.73,0,0,0-.9,1.2,2.82,2.82,0,0,0,.2,1.8,68,68,0,0,1,1.8,7.5c.2,1.8.3,3.5.5,5.3.2,3.6.6,9.4,1.1,12.9a46,46,0,0,0,5.2-.6c3.2-.3,6.6.4,9.7-.3-.8-3-1.5-8.2-2.3-11.2a22,22,0,0,1-.7-3.7,24.32,24.32,0,0,1,0-2.7c0-1.7-.1-3.5-.2-5.2a31.7,31.7,0,0,0-.7-6.1.91.91,0,0,0-.3-.7,1.18,1.18,0,0,0-1-.1,4.49,4.49,0,0,1-3-.7c-.4-.3-.9-.6-1.3-.3a.86.86,0,0,0-.3.6,3.19,3.19,0,0,1-1.8,1.8,7.51,7.51,0,0,1-2.6.5,1.06,1.06,0,0,1-.8-.1c-.4-.2-.4-1.2-1-1.2S120.92,115.9,120.52,116.1Z" transform="translate(-0.02 0.1)" fill="#3f3d56"/><path d="M127.42,123.2c-1.1-1-1.6-2.5-2.3-3.8a7,7,0,0,0-2-2.2,10.63,10.63,0,0,1-1.1-.9c-.3-.3-.5-.8-.9-.9a1,1,0,0,0-1,.3,2.7,2.7,0,0,0-.7.8c-1.2,1.3-3.4,1.5-4.4,2.9a2.22,2.22,0,0,0-.5,1.1,8.35,8.35,0,0,0,1.6,6.1,2,2,0,0,0,1.1.9,3,3,0,0,0,.2,1.6,39.34,39.34,0,0,0,2,5.4,15.52,15.52,0,0,0-.4,2.1c-.2,1.8,0,3.6-.2,5.4a31.76,31.76,0,0,0-.6,4.3c0,.2,0,.5.2.6a.37.37,0,0,0,.3.1l3.6.1a31.83,31.83,0,0,0,6.2-.3,2.35,2.35,0,0,0,.8-.2,2.61,2.61,0,0,0,1-2,30.28,30.28,0,0,0,.2-3.1c.4,1.4.9,2.8,2.3,3.4a5.58,5.58,0,0,0,2.2.3,40.68,40.68,0,0,0,4.9-.5c.4,0,.7-.2.7-.6v-1.8c0-3.2-.8-6.3-1.1-9.5a15.26,15.26,0,0,0-.3-3l-.3-1.2a4.87,4.87,0,0,1-.1-1.2l-.2-3.2c-.1-1.5-.3-2.9-.4-4.4a31.76,31.76,0,0,0-.6-4.3c-.2-.9-.8-1.9-1.7-2a3.19,3.19,0,0,0-1.4.3,5.25,5.25,0,0,1-3.5,0l-1.1-.3a1,1,0,0,0-1,.4,1.06,1.06,0,0,0-.1.8,62.75,62.75,0,0,1-1.4,8.5Z" transform="translate(-0.02 0.1)" fill="#116d3b"/><path d="M122.72,123.3a19.72,19.72,0,0,0-4.4-3.8,3.42,3.42,0,0,0-2.2-.5,1.62,1.62,0,0,0-1.4,1.6,7.37,7.37,0,0,0,.4,1.4c0,.5.1,1.1.1,1.6a2.36,2.36,0,0,0,.6.9l2.1,2.4a12.85,12.85,0,0,0,2.9,2.8,4,4,0,0,0,3.8.5,4.84,4.84,0,0,0,2.1-1.9c.5-.8.9-1.7,1.3-2.5a13.88,13.88,0,0,1,2.9-3.5,3.1,3.1,0,0,1-1.8-.9c-.1-.2-.2-.3-.3-.5l-.5-1a1.61,1.61,0,0,0-.9.3,4.62,4.62,0,0,1-.7.7c-.4.3-1,.4-1.3.8-.1.2-.3.3-.4.5a3,3,0,0,1-2.3,1.1Z" transform="translate(-0.02 0.1)" fill="#3f3d56"/><path d="M131,117.2c1-1.8,1-4.1,1.2-6.1a2.2,2.2,0,0,1,.6-1.5,2.83,2.83,0,0,1,2.5-.6c.2,0,.6.2.6.4a.35.35,0,0,1-.1.2,7.33,7.33,0,0,0-1.4,3.8c.5.3,1.2-.3,1.6,0s.2.7,0,1.1l-1.2,2.4a6.41,6.41,0,0,1-1.3,1.9,10.59,10.59,0,0,0-1.2,1c-.9.8-1.4,2-2.3,2.8-.1.1-.2.1-.3.2s-.2-.1-.3-.1a4.49,4.49,0,0,1-1.1-1.3c-.3-.6-.3-.8.2-1.3a11.91,11.91,0,0,0,2.5-2.9Z" transform="translate(-0.02 0.1)" fill="#be6f72"/><path d="M121.12,122.1a.66.66,0,0,0,.6.1.22.22,0,0,0,.2-.2,6.38,6.38,0,0,0,.8-1.4c0-.1.1-.1.1-.2s-.2-.3-.3-.4a12.27,12.27,0,0,0-2.6-1.2,6.87,6.87,0,0,0-2.4-.5,2.09,2.09,0,0,0-1.6.8c-.6.8.4,1,1,1.3a28.46,28.46,0,0,1,4.2,1.7Z" transform="translate(-0.02 0.1)" fill="#116d3b"/><path d="M120.12,127a.6.6,0,0,0,.1.4c.1-.4,0-.8.1-1.3s.7-1.1.8-1.7c-1.1-.2-.9,2-1,2.6Z" transform="translate(-0.02 0.1)" opacity="0.1" style="isolation:isolate"/><path d="M119,108.9c.7-.6.3-1.9.8-2.7a3,3,0,0,1,1.3-.9,5.92,5.92,0,0,1,1.9-.5,2.11,2.11,0,0,1,1.7.6c.2.2.3.5.5.7a1.79,1.79,0,0,0,1.8.6c.4-.1.8-.4.8-.8a1.14,1.14,0,0,0-.3-.6l-.8-.9a6,6,0,0,0-3.4-2.4,5.71,5.71,0,0,0-2.9.4,1.11,1.11,0,0,0-.9.7,2.13,2.13,0,0,0,0,.8c-.1.5-.8.7-1.1,1.1s-.2,1-.3,1.5a8.33,8.33,0,0,0-.4,1.5c0,.3.2.9.5,1s.6-.4.8-.1Z" transform="translate(-0.02 0.1)" fill="#3f3d56"/><path d="M127.52,105.6A9.52,9.52,0,0,0,126,102a6.15,6.15,0,0,0-2.8-2.2,4.05,4.05,0,0,0-3.4.3,4.14,4.14,0,0,0-1.7,2.2,5.93,5.93,0,0,0-.2,5.2c.3-.4.9-.2,1.5-.4s1.3-.6,1.8-.9c1.9-.8,4.3-.2,6.3-.6Z" transform="translate(-0.02 0.1)" fill="#fed253"/><path d="M118.32,105.5a2,2,0,0,1,.3-1.5.35.35,0,0,1,.2-.1.1.1,0,0,1,.1.1,10.91,10.91,0,0,1,.6,1.1,1.2,1.2,0,0,0-1.2.4" transform="translate(-0.02 0.1)" opacity="0.1" style="isolation:isolate"/><path d="M125.22,104.1l-.1-1v-.3c.1-.1.3-.2.4-.1s.3.2.3.3l.6,1.2a3.3,3.3,0,0,0-1.4,0" transform="translate(-0.02 0.1)" opacity="0.1" style="isolation:isolate"/><path d="M86.22,188.1a.82.82,0,0,1-.7,1h-.1a4.77,4.77,0,0,0-2.2,1.2,1.69,1.69,0,0,0,0,2.3h0a2.38,2.38,0,0,0,1.2.3,7.42,7.42,0,0,0,3.9-.5c.8-.4,1.7-1.1,2.6-1,.5,0,1,.3,1.4,0a1.68,1.68,0,0,0,.6-1.4,11.85,11.85,0,0,0-.5-3.2,7.61,7.61,0,0,0-2.1-.3l-2.2-.3c-.4-.1-1.3-.4-1.7,0s-.2,1.5-.2,1.9Z" transform="translate(-0.02 0.1)" fill="#116d3b"/><path d="M99.62,180.9a4.42,4.42,0,0,0,.5,1.5,3.7,3.7,0,0,0,1.5,2,2.43,2.43,0,0,0,2.2-.1,1.56,1.56,0,0,0,.8-.6,2.77,2.77,0,0,0,.3-1.3,6.28,6.28,0,0,0-.6-3.3c-.4-.9-1.2-1.6-1.2-2.6l-2.6.5c-.1,0-.3.1-.4.1s-.1.2-.2.3a8.49,8.49,0,0,0-.3,3.5Z" transform="translate(-0.02 0.1)" fill="#116d3b"/><path d="M67.92,153.2a4.6,4.6,0,0,0,.4,2.8,2.15,2.15,0,0,0,2.4,1,.22.22,0,0,0,.2-.2v-.3a4,4,0,0,1,.1-3.2c.1-.1.2-.3.3-.2s.1.1.2.1a1.88,1.88,0,0,1,.2.8,2.15,2.15,0,0,0,0,.8c.1.2.3.5.6.4a1.38,1.38,0,0,0,.3-.4,13.07,13.07,0,0,0,.1-5.9.27.27,0,0,0-.3-.3h-.1c-1.4-.1-2.1-.5-2.9.8a6.67,6.67,0,0,0-1.5,3.8Z" transform="translate(-0.02 0.1)" fill="#116d3b"/><path d="M84,148.4a17.11,17.11,0,0,0-.6,8.4l.3,2.5c.1.9.2,1.7.3,2.6.1.4.1.9.2,1.3a5.85,5.85,0,0,1-.2,1.3,12.41,12.41,0,0,0-.3,2.7c0,1.5.1,2.9.2,4.4a50.56,50.56,0,0,1-.1,8.7,3.72,3.72,0,0,0,.5,2.3,1.61,1.61,0,0,1,.4.7c.2.7-.3,1.3-.4,2a2,2,0,0,0,1.7,2.3h0c2.3.3,4.7.1,6.8,1.2.2-.6-.3-1.4,0-2a3.92,3.92,0,0,1,.8-1,2.73,2.73,0,0,0,.5-1.8,6.72,6.72,0,0,0-.4-2.4,6.64,6.64,0,0,1-.6-2,1.7,1.7,0,0,0,0-1,1.76,1.76,0,0,0-.4-.5,5.81,5.81,0,0,1-1.5-3.4,16,16,0,0,1,.1-3.8,6,6,0,0,1,1.1-3.4A20.33,20.33,0,0,1,93,159c.1-.2.2-.5.5-.6a1.42,1.42,0,0,1,.6.2,5.07,5.07,0,0,1,.9,1.6,3.4,3.4,0,0,1,.3,2c-.1.3-.2.5-.3.8a2.46,2.46,0,0,0,.1,1.7,1,1,0,0,1,0,1.2,3.07,3.07,0,0,0,.2,2.1,7.46,7.46,0,0,0,1.4,1.7,5.66,5.66,0,0,0,.2,3.4.19.19,0,0,1,0,.3c-.1.1-.2.1-.3.2-.3.2-.1.7.1,1a10.77,10.77,0,0,0,1.8,2.4c.6.7.5,2,1.4,2.3a2.05,2.05,0,0,0,1.1,0,2.66,2.66,0,0,0,2.2-1.1,4.05,4.05,0,0,1,.5-.9,2.41,2.41,0,0,0,.8-.6c.2-.3,0-.6,0-1s.3-.6.4-.9c.2-.8-.7-1.4-.8-2.2-.2-1.2,1.3-2,1.2-3.2-.1-2.5-.2-5.1-.3-7.6a51.45,51.45,0,0,1-.1-6.8,10,10,0,0,0-.2-4.2,5.62,5.62,0,0,0-4.8-3.1,19.43,19.43,0,0,0-5.9.6,37.25,37.25,0,0,1-10,.1Z" transform="translate(-0.02 0.1)" fill="#3f3d56"/><path d="M91.62,124.3a12.25,12.25,0,0,1-1.9-.2,2.26,2.26,0,0,1-1.5-1c-.2-.3-.3-.7-.7-.9-.6-.3-1.2.2-1.7.7a7.55,7.55,0,0,1-1.4,1.1,15.39,15.39,0,0,0-1.9.8,3.74,3.74,0,0,0-1.2,1.3l-4.1,5.6c-1.7,2.3-3.1,4.7-4.6,7.1a50.14,50.14,0,0,0-2.9,6.7.6.6,0,0,0-.1.4c.1.1.2.3.4.2-.4.4-.1,1.2-.2,1.8a2.59,2.59,0,0,1-.7,1.1,4.8,4.8,0,0,1,3.7,1c.4-.1.3-.7.6-.9s.4-.1.6-.2c.8-.1,1.1-1.1,1.7-1.6s1.2-.6,1.7-1c.8-.7,1-1.9,1.5-2.9s1-1.6,1.3-2.4c.2-.6.4-1.1.6-1.7a4.81,4.81,0,0,1,2.3-1.7,3.74,3.74,0,0,1,1.8-.5,17.85,17.85,0,0,0,.1,4,7.37,7.37,0,0,0,.4,1.4,27.3,27.3,0,0,1,.7,6.4,18.41,18.41,0,0,1,4.1-.5c1.1,0,2.1.1,3.2.1,1.3,0,2.6-.3,3.8-.4a8.22,8.22,0,0,1,3.8.6,33.73,33.73,0,0,1,.2-5.5l.3-2.9a21.66,21.66,0,0,1,.4-2.5c.2-.7.4-1.3.6-2a21.85,21.85,0,0,0,.4-7.2,8.9,8.9,0,0,0-1.1-3.6,7.46,7.46,0,0,0-.7-1.2,6.83,6.83,0,0,0-6-2.8.6.6,0,0,0-.4.1,4.35,4.35,0,0,0-.6.7,7.47,7.47,0,0,1-2.5,2.5Z" transform="translate(-0.02 0.1)" fill="#3f3d56"/><path d="M85.32,112.1a.22.22,0,0,1,.2.2l.6,1.2c-.3.1-.9.2-1.1-.2C84.92,113.1,85,112.1,85.32,112.1Z" transform="translate(-0.02 0.1)" opacity="0.1" style="isolation:isolate"/><path d="M91.92,111.4c-.1.1-.2-.1-.2-.2V110h.1c.2,0,.4.2.6.4a8.79,8.79,0,0,1,.6,1l-1.2-.1" transform="translate(-0.02 0.1)" opacity="0.1" style="isolation:isolate"/><path d="M92.22,134.2l-1.5-3.2c-.2-.4-.4-.9-.6-1.4s-.2-1.1-.4-1.7c-.5-1.9-1.8-3.4-2.5-5.3a.52.52,0,0,0-.2-.4.66.66,0,0,0-.6-.1,9,9,0,0,0-2.4,1.2c-.4.2-.8.3-1.2.5a1.42,1.42,0,0,0-.8.9,2.77,2.77,0,0,0,.3,1.3,14.19,14.19,0,0,1,1,5.8,6.41,6.41,0,0,1-.8,3.8c-1.5,2-.5,5,0,7.5.1.3.1.6.2.9s.1.8.1,1.2a8.22,8.22,0,0,1-.6,3.8,3.37,3.37,0,0,0,1.7.5c1.7.2,3.4.4,5.1.5a4.33,4.33,0,0,0,1.6-.1,2.92,2.92,0,0,0,2.2-2.9,3.49,3.49,0,0,0,.8,2.2,3.41,3.41,0,0,0,2.2.7,50,50,0,0,0,6.7-.2.6.6,0,0,0,.4-.1,1.19,1.19,0,0,0,.4-1.3c-.1-.9-.1-1.8-.2-2.7a9.7,9.7,0,0,1-.1-1.7,5.66,5.66,0,0,1,.3-1.8,25.73,25.73,0,0,0,.6-5.5,6.6,6.6,0,0,1-.1-1.4,15.67,15.67,0,0,0,.5-3,46.75,46.75,0,0,0-1.4-9,2.85,2.85,0,0,0-.8-1.4c-.6-.4-1.4-.2-2.1-.4a4.05,4.05,0,0,1-.9-.5,3.61,3.61,0,0,0-2-.6,1.47,1.47,0,0,0-1.4.5,1.14,1.14,0,0,0-.3.8c-.4,1.8-.9,3.5-1.4,5.3l-.5,1.7-1.3,4.5a2.05,2.05,0,0,1,0,1.1Z" transform="translate(-0.02 0.1)" fill="#116d3b"/><path d="M107.32,130.2c.3-.3.6-.5.8-.7a15.33,15.33,0,0,1,2.7-1.1,3.89,3.89,0,0,0,2.2-1.8,5.54,5.54,0,0,0,.2-1.8,1.7,1.7,0,0,0-.1-.7,1.21,1.21,0,0,0-.5-.5,6.78,6.78,0,0,0-4.4-.9,26.63,26.63,0,0,0-9.7,2.4,1.38,1.38,0,0,0-.4.3.6.6,0,0,0-.1.4,10.07,10.07,0,0,0,.3,2.5c.4,1,1.2,1.9,1.6,2.9a8.87,8.87,0,0,1,.3,1.4,2,2,0,0,0,.8,1.2c1.2.7,2.2-.2,3-.9Z" transform="translate(-0.02 0.1)" fill="#3f3d56"/><g id="b7909af3-4082-4162-ada8-785b1cffcbbe" data-name="Toru1"><path d="M119,141.7a4.67,4.67,0,0,1-5.4,3.9,4.79,4.79,0,0,1-3.5-2.6,4.2,4.2,0,0,1-.4-2.7,4.67,4.67,0,0,1,5.4-3.9,4.33,4.33,0,0,1,2.5,1.3,2.65,2.65,0,0,1,.5.6A4.53,4.53,0,0,1,119,141.7Z" transform="translate(-0.02 0.1)" fill="#8d8d8d"/><path d="M118.32,138.4a5,5,0,0,0-2.6-1.3,4.9,4.9,0,0,0-5.5,4,4.4,4.4,0,0,0,.4,2.8l-12.9-17.7-16.2-22.3-.1-.1a4.68,4.68,0,0,1,4.3-7.7,4.61,4.61,0,0,1,3.1,1.9,1.61,1.61,0,0,1,.4.7h.1Z" transform="translate(-0.02 0.1)" fill="#e7e7e7"/></g><path d="M88,121.5a2,2,0,0,1-1.9,1.2,2.28,2.28,0,0,0,.7,1.9,8.22,8.22,0,0,0,7.9,2.7,3.29,3.29,0,0,0,1.6-.7,3.45,3.45,0,0,0,1.2-2.1,9.66,9.66,0,0,0,.1-2.4.9.9,0,0,0-.1-.5.6.6,0,0,0-.4-.1,7.17,7.17,0,0,1-2.9-.6,2.11,2.11,0,0,1-1.1-2.5,13.55,13.55,0,0,1-2,.2l-2.1.3a3.55,3.55,0,0,0-1,.2c-.4.2-.3.1-.2.5a2.58,2.58,0,0,1,.2,1.9Z" transform="translate(-0.02 0.1)" fill="#fbbebe"/><polygon points="101.3 126.3 99.5 127.3 99.5 127.4 98.8 127.7 97.3 125.7 93.5 120.3 98 119.5 99.8 123.3 100.6 124.9 101.3 126.3" fill="#e7e7e7"/><path d="M109.72,141.4c.8-6,6.6-4.6,6.6-4.6" transform="translate(-0.02 0.1)" fill="none" stroke="#dedede" stroke-miterlimit="10" stroke-width="0.5"/><path d="M107.32,138.1c.8-6,6.6-4.6,6.6-4.6" transform="translate(-0.02 0.1)" fill="none" stroke="#dedede" stroke-miterlimit="10" stroke-width="0.5"/><path d="M104.92,134.8c.8-6,6.6-4.6,6.6-4.6" transform="translate(-0.02 0.1)" fill="none" stroke="#dedede" stroke-miterlimit="10" stroke-width="0.5"/><path d="M102.52,131.5c.8-6,6.6-4.6,6.6-4.6" transform="translate(-0.02 0.1)" fill="none" stroke="#dedede" stroke-miterlimit="10" stroke-width="0.5"/><path d="M100.12,128.3c.8-6,6.6-4.6,6.6-4.6" transform="translate(-0.02 0.1)" fill="none" stroke="#dedede" stroke-miterlimit="10" stroke-width="0.5"/><path d="M97.72,125c.8-6,6.6-4.6,6.6-4.6" transform="translate(-0.02 0.1)" fill="none" stroke="#dedede" stroke-miterlimit="10" stroke-width="0.5"/><path d="M95.42,121.7c.8-6,6.6-4.6,6.6-4.6" transform="translate(-0.02 0.1)" fill="none" stroke="#dedede" stroke-miterlimit="10" stroke-width="0.5"/><path d="M93,118.4c.8-6,6.6-4.6,6.6-4.6" transform="translate(-0.02 0.1)" fill="none" stroke="#dedede" stroke-miterlimit="10" stroke-width="0.5"/><path d="M90.62,115.1c.8-6,6.6-4.6,6.6-4.6" transform="translate(-0.02 0.1)" fill="none" stroke="#dedede" stroke-miterlimit="10" stroke-width="0.5"/><path d="M88.22,111.9c.8-6,6.6-4.6,6.6-4.6" transform="translate(-0.02 0.1)" fill="none" stroke="#dedede" stroke-miterlimit="10" stroke-width="0.5"/><path d="M85.82,108.6c.8-6,6.6-4.6,6.6-4.6" transform="translate(-0.02 0.1)" fill="none" stroke="#dedede" stroke-miterlimit="10" stroke-width="0.5"/><path d="M83.42,105.3c.8-6,6.6-4.6,6.6-4.6" transform="translate(-0.02 0.1)" fill="none" stroke="#dedede" stroke-miterlimit="10" stroke-width="0.5"/><path d="M81.12,102c.8-6,6.6-4.6,6.6-4.6" transform="translate(-0.02 0.1)" fill="none" stroke="#dedede" stroke-miterlimit="10" stroke-width="0.5"/><path d="M98.82,127.6l-1.4-1.9c-.1-.1-.1-.2,0-.4a4.83,4.83,0,0,1,1-1.5,13.09,13.09,0,0,1,1.3-.7c.9-.5,1.8-.9,1.8-.9l2.6-.5s-3.2,1.1-4.4,3.2" transform="translate(-0.02 0.1)" fill="#888"/><path d="M97.72,121.3a3.91,3.91,0,0,0-2.4,2.3A1.08,1.08,0,0,0,96,125c.1,0,.3.1.4.1a3.19,3.19,0,0,0,1.4-.3l5.9-2.3c.2-.1.4-.1.4-.3a.37.37,0,0,0-.1-.3c-.2-.5-.4-1.5-.8-1.8s-1-.2-1.3-.1a10.31,10.31,0,0,0-4.2,1.3Z" transform="translate(-0.02 0.1)" fill="#116d3b"/><path d="M85.82,117.5c.1-.3.5-.4.7-.6.4-.4.2-1.2.3-1.8a2.52,2.52,0,0,1,1.7-1.9,5.65,5.65,0,0,1,2.6-.2,2.84,2.84,0,0,1,1.2.4c.2.1.3.3.4.4a1.16,1.16,0,0,0,1.6-.4c-1-1.2-2.2-2.6-3.8-2.9a8.75,8.75,0,0,0-1.6-.2,5.5,5.5,0,0,0-2.2.2,3.49,3.49,0,0,0-1.9,2.2,13.52,13.52,0,0,0-.5,2.9,6.7,6.7,0,0,0,0,2,5.51,5.51,0,0,0,1,2.5l.3.3c1.4.5.1-2.7.2-2.9Z" transform="translate(-0.02 0.1)" fill="#3f3d56"/><path d="M94.12,112.7a5.67,5.67,0,0,0-2.2-3.4,7.89,7.89,0,0,0-2.9-1.8,3.85,3.85,0,0,0-3.3.4,5,5,0,0,0-1.6,2.2,7.11,7.11,0,0,0-.7,3.2,3.31,3.31,0,0,0,1.6,2.8,3.07,3.07,0,0,1,1.5-1A67,67,0,0,1,94.12,112.7Z" transform="translate(-0.02 0.1)" fill="#fed253"/><circle cx="89.9" cy="116" r="4.7" fill="#fbbebe"/><path d="M103.22,122.8a10.47,10.47,0,0,1,3,.5,5.34,5.34,0,0,1,2.5,1.7,2,2,0,0,1,.4.8c.1.3,1,.5.8.7.6-.1.5.2,1.1.2a2.06,2.06,0,0,0,1.7-.7,1.74,1.74,0,0,0,.3-1.4,3.55,3.55,0,0,0-.2-1,2.76,2.76,0,0,0-1.6-1.2L106,120a1.69,1.69,0,0,0-1-.3h-.9l-2.3.3a3.59,3.59,0,0,1,1.6,3.1" transform="translate(-0.02 0.1)" fill="#3f3d56"/></svg>