<svg xmlns="http://www.w3.org/2000/svg" width="360.01" height="360"><path fill="#888" d="M0 85.02l4.63-4.27a49.1 49.1 0 0 0 7.33 3.74l-1.2 10.23 2.66.87 5.05-9a48.07 48.07 0 0 0 8.12 1.28l2 10.12h2.8l2.03-10.12a48.34 48.34 0 0 0 8.12-1.28l5.05 9 2.66-.87-1.2-10.24a47.7 47.7 0 0 0 7.33-3.75l7.57 7 2.26-1.65-4.3-9.38a48.3 48.3 0 0 0 5.8-5.8l9.38 4.3 1.66-2.26-7-7.58a49.1 49.1 0 0 0 3.74-7.33l10.24 1.2.87-2.66-9-5.06a48.07 48.07 0 0 0 1.3-8.12L88 41.4v-2.8l-10.1-2.02a48.34 48.34 0 0 0-1.3-8.12l9-5.05-.86-2.65-10.24 1.2a47.7 47.7 0 0 0-3.74-7.33l7-7.58-1.65-2.26-9.37 4.3a48.3 48.3 0 0 0-5.8-5.8L62.43 0h2.16l-1.26 2.72a50.3 50.3 0 0 1 3.95 3.95l9.5-4.36 3.5 4.86-7.07 7.68a47.56 47.56 0 0 1 2.54 4.98l10.38-1.2L88 24.3l-9.1 5.1a49.97 49.97 0 0 1 .86 5.53L90 37v6l-10.24 2.05a49.9 49.9 0 0 1-.87 5.52L88 55.7l-1.85 5.7-10.38-1.22a49.6 49.6 0 0 1-2.54 4.98l7.08 7.68-3.5 4.85-9.5-4.37a50.3 50.3 0 0 1-3.96 3.95l4.36 9.5-4.85 3.52-7.68-7.08a47.56 47.56 0 0 1-4.98 2.54l1.2 10.38L45.7 98l-5.12-9.12a49.97 49.97 0 0 1-5.52.87L33 100h-6l-2.04-10.25a49.9 49.9 0 0 1-5.52-.87l-5.12 9.1-5.7-1.84 1.2-10.38a49.6 49.6 0 0 1-4.97-2.54L0 87.68zM0 52.7V27.3l8.4 4.84a22.96 22.96 0 0 0 0 15.72zm0-39.16A39.9 39.9 0 0 1 26 .2v17.15a22.98 22.98 0 0 0-13.6 7.86L0 18.07v-4.52zm0 52.92v-4.52l12.4-7.15A22.98 22.98 0 0 0 26 62.64V79.8A39.9 39.9 0 0 1 0 66.46zM34 79.8V62.65a22.98 22.98 0 0 0 13.63-7.86l14.85 8.57A39.97 39.97 0 0 1 34 79.8zm32.5-23.36l-14.87-8.58a22.96 22.96 0 0 0 0-15.72l14.86-8.58a40.15 40.15 0 0 1 0 32.88zm-4.02-39.8L47.63 25.2A22.98 22.98 0 0 0 34 17.35V.2A39.97 39.97 0 0 1 62.5 16.63zM0 50.38l6-3.45a25 25 0 0 1 0-13.88L0 29.6zm.5-34.35L12 22.66a25.07 25.07 0 0 1 12-6.94V2.47A37.96 37.96 0 0 0 .5 16.04zm0 47.92A37.96 37.96 0 0 0 24 77.53V64.28a24.97 24.97 0 0 1-12-6.95L.5 63.96zM36 77.53a37.96 37.96 0 0 0 23.5-13.57l-11.47-6.63A24.97 24.97 0 0 1 36 64.28zm29.5-23.96a37.9 37.9 0 0 0 0-27.14l-11.47 6.63a25 25 0 0 1 0 13.88l11.5 6.63h-.02zm-6-37.53A37.96 37.96 0 0 0 36 2.47v13.25a24.97 24.97 0 0 1 12.03 6.95zM30 54a14 14 0 1 1 14-14 14 14 0 0 1-14 14zm0-2a12 12 0 1 0-12-12 12 12 0 0 0 12 12zm0-2a10 10 0 1 1 10-10 10 10 0 0 1-10 10zm0-2a8 8 0 1 0-8-8 8 8 0 0 0 8 8zm77.48 45.17l-1.62-5.97 5.67-2.06 2.6 5.64a33.07 33.07 0 0 1 3.34-.58L118 84h6.03l.52 6.2a33.07 33.07 0 0 1 3.33.58l2.6-5.64 5.68 2.06-1.62 5.97a29.6 29.6 0 0 1 2.95 1.7l4.34-4.4 4.62 3.9-3.53 5a32.5 32.5 0 0 1 2.23 2.6l5.52-2.6 3.02 5.24-4.98 3.47a30.82 30.82 0 0 1 1.2 3.25l6.02-.54 1.05 5.94-5.85 1.54a28.86 28.86 0 0 1 0 3.48l5.84 1.54-1.06 5.94-6.02-.54a30.83 30.83 0 0 1-1.2 3.25l4.98 3.46-3.02 5.2-5.52-2.6a29.6 29.6 0 0 1-2.23 2.63l3.53 5-4.62 3.9-4.35-4.4a30.2 30.2 0 0 1-2.96 1.7l1.62 5.97-5.67 2.06-2.62-5.64a33.07 33.07 0 0 1-3.33.58l-.52 6.2H118l-.53-6.2a30.27 30.27 0 0 1-3.33-.58l-2.6 5.64-5.68-2.06 1.62-5.97a28.8 28.8 0 0 1-2.95-1.7l-4.35 4.4-4.62-3.9 3.53-5a32.5 32.5 0 0 1-2.24-2.6l-5.52 2.6-3.02-5.24 4.98-3.47a29.66 29.66 0 0 1-1.2-3.25l-6.02.54-1.05-5.94 5.84-1.54a30.28 30.28 0 0 1 0-3.48l-5.84-1.54 1.05-5.94 6.02.54a30.83 30.83 0 0 1 1.2-3.25l-4.98-3.46 3.02-5.2 5.52 2.6a29.6 29.6 0 0 1 2.23-2.63l-3.54-5 4.62-3.9 4.35 4.4a30.2 30.2 0 0 1 2.95-1.7zm15.2-1.12l-.5-6.05h-2.34l-.5 6.05a28.06 28.06 0 0 0-6.32 1.1l-2.54-5.5-2.2.8 1.6 5.85a27.97 27.97 0 0 0-5.56 3.2l-4.27-4.3-1.8 1.5 3.5 4.96a28.14 28.14 0 0 0-4.1 4.92l-5.5-2.6-1.17 2.03 4.98 3.47a27.8 27.8 0 0 0-2.2 6.03l-6.03-.55-.4 2.3 5.86 1.54a28.3 28.3 0 0 0 0 6.4l-5.88 1.56.4 2.3 6.05-.56a27.8 27.8 0 0 0 2.2 6.03l-5 3.47 1.17 2.02 5.5-2.6a28.14 28.14 0 0 0 4.1 4.93l-3.5 4.96 1.8 1.5 4.27-4.3a27.97 27.97 0 0 0 5.57 3.2l-1.6 5.86 2.2.8 2.54-5.5a28.06 28.06 0 0 0 6.33 1.1l.5 6.05h2.34l.5-6.04a28.06 28.06 0 0 0 6.32-1.1l2.53 5.5 2.2-.8-1.6-5.85a27.97 27.97 0 0 0 5.56-3.2l4.26 4.3 1.8-1.5-3.5-4.95a28.14 28.14 0 0 0 4.1-4.92l5.5 2.6 1.17-2.03-4.98-3.46a27.8 27.8 0 0 0 2.2-6.03l6.03.56.4-2.3-5.86-1.54a28.3 28.3 0 0 0 0-6.42l5.87-1.55-.4-2.3-6.06.56a27.8 27.8 0 0 0-2.2-6.02l5-3.46-1.18-2.02-5.5 2.6a28.14 28.14 0 0 0-4.1-4.93l3.5-4.96-1.8-1.5-4.27 4.32a27.97 27.97 0 0 0-5.57-3.2l1.6-5.86-2.2-.8-2.54 5.5a28.06 28.06 0 0 0-6.33-1.1zM121 128a8 8 0 1 1 8-8 8 8 0 0 1-8 8zm0-2a6 6 0 1 0-6-6 6 6 0 0 0 6 6zm0-18a5 5 0 1 1 5-5 5 5 0 0 1-5 5zm8.5 3.5a5 5 0 1 1 7.08-.1 5 5 0 0 1-7.08.1zm3.5 8.5a5 5 0 1 1 5 5 5 5 0 0 1-5-5zm-3.5 8.5a5 5 0 1 1 .13 7.07 5 5 0 0 1-.13-7.08zM121 132a5 5 0 1 1-5 5 5 5 0 0 1 5-5zm-8.48-3.5a5 5 0 1 1-7.08.12 5 5 0 0 1 7.08-.13zm-3.5-8.5a5 5 0 1 1-5-5 5 5 0 0 1 5 5zm3.5-8.5a5 5 0 1 1-.13-7.06 5 5 0 0 1 .12 7.07zm8.5-5.5a3 3 0 1 0-3-3 3 3 0 0 0 3 3zm9.9 4.1a3 3 0 1 0 .14-4.24 3 3 0 0 0-.15 4.24zm4.1 9.9a3 3 0 1 0 3-3 3 3 0 0 0-3 3zm-4.1 9.9a3 3 0 1 0 4.23.15 3 3 0 0 0-4.24-.15zM121 134a3 3 0 1 0 3 3 3 3 0 0 0-3-3zm-9.9-4.1a3 3 0 1 0-.16 4.24 3 3 0 0 0 .15-4.24zM107 120a3 3 0 1 0-3 3 3 3 0 0 0 3-3zm4.1-9.9a3 3 0 1 0-4.25-.15 3 3 0 0 0 4.24.15zm129.4-6.95c.88.08 1.75.18 2.6.3l1.5-3.9 1.95-3.64 3.9.98V101l-.5 4.14c.82.28 1.63.6 2.43.93l2.42-3.43 2.76-3.07 3.54 1.88-1 4-1.5 3.9c.74.46 1.46.96 2.16 1.48l3.2-2.76 3.4-2.3 2.98 2.67-1.93 3.65-2.38 3.4c.6.63 1.2 1.3 1.76 1.98l3.7-1.94 3.84-1.48 2.3 3.28-2.7 3.1-3.13 2.83c.44.76.85 1.53 1.23 2.32l4.04-1 4.1-.5 1.43 3.72-3.37 2.37-3.7 1.97c.23.84.44 1.68.62 2.54l4.17.02 4.1.5.48 3.97-3.85 1.47-4.06 1.02c.02.86.02 1.74 0 2.6l4.05 1.03 3.85 1.48-.48 3.98-4.1.5h-4.17c-.18.87-.4 1.72-.63 2.55l3.7 1.98 3.38 2.38-1.43 3.73-4.1-.5-4.04-1c-.38.8-.8 1.57-1.22 2.33l3.14 2.82 2.7 3.1-2.3 3.3-3.85-1.5-3.7-1.94q-.83 1.04-1.75 2l2.38 3.42 1.93 3.64-2.97 2.67-3.43-2.3-3.2-2.76q-1.04.77-2.14 1.48l1.48 3.9 1 4-3.52 1.88-2.76-3.07-2.42-3.43c-.8.33-1.6.65-2.45.93l.5 4.13v4.12l-3.88.97-1.94-3.66-1.5-3.9c-.86.13-1.73.23-2.6.3L240 187l-1 4h-4l-1-4-.5-4.16q-1.3-.1-2.6-.3l-1.5 3.9-1.95 3.65-3.9-.98V185l.5-4.14c-.82-.28-1.63-.6-2.43-.93l-2.42 3.43-2.76 3.07-3.54-1.88 1-4 1.5-3.9c-.75-.46-1.46-.96-2.16-1.48l-3.2 2.76-3.4 2.3-2.98-2.67 1.93-3.65 2.37-3.4c-.6-.64-1.2-1.3-1.76-1.98l-3.67 1.94-3.85 1.48-2.3-3.28 2.7-3.1 3.13-2.83c-.42-.76-.83-1.53-1.2-2.32l-4.05 1-4.1.5-1.43-3.72 3.37-2.37 3.7-1.97c-.24-.84-.45-1.68-.63-2.54l-4.17-.02-4.1-.5-.48-3.97 3.85-1.47 4.06-1.02c-.03-.86-.03-1.74 0-2.6l-4.06-1.03-3.85-1.48.48-3.98 4.1-.5h4.17c.18-.87.4-1.72.63-2.55l-3.7-1.98-3.38-2.38 1.43-3.73 4.1.5 4.04 1c.37-.8.78-1.57 1.2-2.33l-3.12-2.82-2.7-3.1 2.3-3.3 3.85 1.5 3.68 1.94q.85-1.04 1.77-2l-2.38-3.42-1.94-3.64 2.97-2.67 3.42 2.3 3.2 2.76c.7-.52 1.4-1.02 2.14-1.48l-1.5-3.9-1-4 3.54-1.88 2.76 3.07 2.42 3.43c.8-.33 1.6-.65 2.45-.93l-.5-4.13V96.9l3.88-.97 1.94 3.66 1.5 3.9c.85-.13 1.72-.23 2.6-.3L234 99l1-4h4l1 4 .53 4.15zm-14.3 3.4a38.28 38.28 0 0 0-5.3 2l-3.5-4.97-1.37-1.53-.88.47.5 2 2.16 5.67a38.1 38.1 0 0 0-4.66 3.2l-4.6-4-1.72-1.14-.75.67.97 1.82 3.47 4.98a38.22 38.22 0 0 0-3.8 4.28l-5.36-2.83-1.92-.74-.57.82 1.34 1.56 4.52 4.1a37.9 37.9 0 0 0-2.64 5l-5.9-1.45-2.03-.25-.37.94 1.7 1.18 5.35 2.87a37.74 37.74 0 0 0-1.35 5.5h-6.08l-2.04.25-.1 1 1.9.73 5.9 1.5a38.54 38.54 0 0 0 0 5.65l-5.9 1.5-1.9.73.1 1 2.05.24h6.08a38.7 38.7 0 0 0 1.35 5.5l-5.36 2.88-1.7 1.18.37.94 2.03-.25 5.9-1.46a37.9 37.9 0 0 0 2.63 5l-4.52 4.1-1.35 1.55.56.82 1.92-.74 5.37-2.84a38.22 38.22 0 0 0 3.8 4.27l-3.48 4.98-.97 1.82.75.67 1.7-1.15 4.62-4a38.1 38.1 0 0 0 4.66 3.2l-2.17 5.68-.5 2 .9.47 1.37-1.53 3.5-4.98a35.9 35.9 0 0 0 5.3 2l-.73 6.04v2.06l.97.24.97-1.82 2.2-5.68a37.04 37.04 0 0 0 5.62.68L236 187l.5 2h1l.5-2 .76-6.04a38.2 38.2 0 0 0 5.62-.68l2.2 5.68.97 1.82.97-.24v-2.06l-.73-6.03a38.28 38.28 0 0 0 5.3-2l3.5 4.97 1.37 1.53.88-.47-.5-2-2.16-5.67a38.1 38.1 0 0 0 4.65-3.2l4.6 4 1.72 1.14.75-.67-.97-1.82-3.47-4.98a38.22 38.22 0 0 0 3.8-4.28l5.36 2.83 1.92.74.57-.82-1.35-1.56-4.52-4.1a39.1 39.1 0 0 0 2.64-5l5.9 1.45 2.03.25.36-.94-1.7-1.18-5.36-2.87a37.4 37.4 0 0 0 1.35-5.5h6.07l2.04-.25.13-1-1.92-.73-5.9-1.5a38.05 38.05 0 0 0 0-5.65l5.9-1.5 1.93-.73-.12-1-2.03-.24h-6.08a37.4 37.4 0 0 0-1.36-5.5l5.36-2.88 1.7-1.18-.37-.94-2.04.25-5.9 1.46a37.9 37.9 0 0 0-2.64-5l4.52-4.1 1.35-1.55-.57-.82-1.92.74-5.37 2.84a38.22 38.22 0 0 0-3.8-4.27l3.48-4.98.97-1.82-.75-.67-1.7 1.15-4.62 4a38.1 38.1 0 0 0-4.66-3.2l2.16-5.68.5-2-.9-.47-1.37 1.53-3.5 4.98a35.9 35.9 0 0 0-5.3-2l.72-6.04v-2.06l-.97-.24-.97 1.82-2.2 5.68a37.04 37.04 0 0 0-5.62-.68L238 99l-.5-2h-1l-.5 2-.74 6.04a38.2 38.2 0 0 0-5.62.68l-2.2-5.68-.97-1.82-.97.24v2.06l.73 6.03zm-5.84 5.65A34.82 34.82 0 0 1 236 108v6a28.8 28.8 0 0 0-12.62 3.4l-3-5.2zm2.8.83l1 1.74a30.8 30.8 0 0 1 9.83-2.63v-2a32.8 32.8 0 0 0-10.82 2.9zm-4.53.17l3 5.2a29.12 29.12 0 0 0-9.24 9.24l-5.2-3a35.18 35.18 0 0 1 11.45-11.44zm-.67 2.84a33.2 33.2 0 0 0-7.93 7.93l1.74 1a31.18 31.18 0 0 1 7.2-7.2l-1.02-1.73zm-11.77 10.33l5.2 3A28.8 28.8 0 0 0 208 142h-6a34.82 34.82 0 0 1 4.2-15.63zm.84 2.8a32.8 32.8 0 0 0-2.9 10.83h2a30.8 30.8 0 0 1 2.64-9.83zM202.02 144h6a28.92 28.92 0 0 0 3.4 12.63l-5.2 3A34.82 34.82 0 0 1 202 144zm2.12 2a32.8 32.8 0 0 0 2.9 10.84l1.74-1a30.8 30.8 0 0 1-2.63-9.84zm3.07 15.36l5.2-3a29.12 29.12 0 0 0 9.25 9.24l-3 5.2a35.18 35.18 0 0 1-11.44-11.44zm2.85.67a33.2 33.2 0 0 0 7.93 7.93l1-1.74a31.18 31.18 0 0 1-7.2-7.2l-1.73 1zm10.33 11.77l3-5.2A28.85 28.85 0 0 0 236 172v6a34.82 34.82 0 0 1-15.62-4.2zm2.8-.83a32.8 32.8 0 0 0 10.83 2.9v-2a30.8 30.8 0 0 1-9.82-2.64zM238 178v-6.02a28.92 28.92 0 0 0 12.64-3.38l3 5.2A34.82 34.82 0 0 1 238 178zm2-2.13a32.8 32.8 0 0 0 10.85-2.9l-1-1.74a30.8 30.8 0 0 1-9.84 2.63zm15.37-3.07l-3-5.2a29.12 29.12 0 0 0 9.24-9.24l5.2 3a35.18 35.18 0 0 1-11.43 11.44zm.67-2.84a33.2 33.2 0 0 0 7.93-7.93l-1.74-1a31.18 31.18 0 0 1-7.2 7.2zm11.77-10.33h.02l-5.2-3a28.85 28.85 0 0 0 3.4-12.63h6a34.82 34.82 0 0 1-4.2 15.63zm-.82-2.8a32.8 32.8 0 0 0 2.9-10.83h-2a30.8 30.8 0 0 1-2.64 9.83l1.74 1zM272 142h-6a28.85 28.85 0 0 0-3.4-12.63l5.2-3A34.82 34.82 0 0 1 272 142zm-2.12-2a32.8 32.8 0 0 0-2.9-10.84l-1.74 1a30.8 30.8 0 0 1 2.63 9.84h2zm-3.07-15.36l-5.2 3a29.12 29.12 0 0 0-9.23-9.24l3-5.2a35.18 35.18 0 0 1 11.44 11.44zm-2.83-.67a33.2 33.2 0 0 0-7.93-7.93l-1 1.74a31.18 31.18 0 0 1 7.2 7.2l1.73-1zM238 108a34.82 34.82 0 0 1 15.64 4.2l-3 5.2A28.85 28.85 0 0 0 238 114zm12.85 5.02a32.8 32.8 0 0 0-10.84-2.9v2a30.8 30.8 0 0 1 9.84 2.64l1-1.74zM237 156a13 13 0 1 1 13-13 13 13 0 0 1-13 13zm0-2a11 11 0 1 0-11-11 11 11 0 0 0 11 11zM137.56 0h56.92l-.74 1.03c.57.7 1.12 1.4 1.64 2.14l7.75-2.9 2 3.46-6.38 5.25c.37.82.72 1.65 1.03 2.5l8.22-.8 1.03 3.86-7.52 3.43c.16.88.27 1.77.36 2.67L210 22v4l-8.14 1.36c-.1.9-.2 1.8-.35 2.67l7.53 3.43-1.04 3.86-8.23-.8c-.3.85-.66 1.68-1.03 2.5l6.38 5.25-2 3.46-7.75-2.9c-.52.74-1.07 1.45-1.64 2.14l4.8 6.73-2.82 2.83-6.72-4.8c-.7.56-1.4 1.1-2.14 1.63l2.9 7.75-3.46 2-5.25-6.37c-.82.37-1.65.72-2.5 1.03l.8 8.22-3.86 1.04-3.43-7.52c-.88.15-1.77.26-2.67.35L168 68h-4l-1.35-8.15c-.9-.1-1.8-.2-2.67-.35l-3.43 7.52-3.86-1.04.8-8.22c-.86-.3-1.7-.66-2.5-1.03l-5.26 6.38-3.46-2 2.9-7.74q-1.1-.78-2.14-1.64l-6.73 4.8-2.82-2.82 4.8-6.73c-.56-.7-1.1-1.4-1.63-2.14l-7.75 2.9-2-3.46 6.38-5.25c-.37-.82-.72-1.65-1.03-2.5l-8.22.8-1.04-3.86 7.5-3.43c-.14-.88-.25-1.77-.34-2.67L122 26v-4l8.16-1.36c.1-.9.2-1.8.35-2.67l-7.5-3.43 1.03-3.86 8.22.8c.3-.85.66-1.68 1.03-2.5l-6.38-5.25 2-3.46 7.75 2.9c.52-.74 1.07-1.45 1.64-2.14zm2.43 0l.83 1.17a34.14 34.14 0 0 0-3.37 4.4L129.8 2.7l-.33.6 6.3 5.17a33.8 33.8 0 0 0-2.14 5.12l-8.1-.8-.18.65 7.42 3.37a34.02 34.02 0 0 0-.72 5.5L124 23.68v.66l8.05 1.34a34.18 34.18 0 0 0 .72 5.5l-7.42 3.38.18.64 8.1-.78a33.88 33.88 0 0 0 2.13 5.12l-6.3 5.18.34.58 7.63-2.86a33.58 33.58 0 0 0 3.38 4.4l-4.72 6.63.47.47 6.63-4.73a34.14 34.14 0 0 0 4.4 3.4l-2.86 7.62.58.33 5.18-6.3a33.88 33.88 0 0 0 5.12 2.14l-.78 8.1.64.17 3.37-7.42a33.37 33.37 0 0 0 5.5.72l1.35 8.04h.66l1.34-8.03a34.18 34.18 0 0 0 5.5-.72l3.38 7.42.64-.18-.78-8.1a33.88 33.88 0 0 0 5.12-2.14l5.18 6.3.58-.34-2.86-7.63a33.58 33.58 0 0 0 4.4-3.4l6.63 4.74.47-.47-4.73-6.63a34.14 34.14 0 0 0 3.4-4.4l7.62 2.86.33-.58-6.3-5.18a33.8 33.8 0 0 0 2.14-5.12l8.1.78.17-.64-7.42-3.37a33.37 33.37 0 0 0 .72-5.5l8.04-1.36v-.66l-8.03-1.34a34.18 34.18 0 0 0-.72-5.5l7.42-3.38-.18-.64-8.1.78a33.8 33.8 0 0 0-2.14-5.12l6.3-5.18-.34-.58-7.63 2.86a33.58 33.58 0 0 0-3.4-4.4l.84-1.17h-52.06zm-2.82 27h14.15A15.02 15.02 0 0 0 163 38.7v14.15A29 29 0 0 1 137.17 27zm12.57-27H163v9.3A15.02 15.02 0 0 0 151.3 21h-14.14a29 29 0 0 1 12.57-21zM169 52.85V38.7A15.02 15.02 0 0 0 180.7 27h14.16A29 29 0 0 1 169 52.85zM182.3 0a29 29 0 0 1 12.56 21H180.7A15.02 15.02 0 0 0 169 9.3V0zm-42.83 29A27.03 27.03 0 0 0 161 50.54v-10.3A17.04 17.04 0 0 1 149.77 29h-10.3zm14.16-29a27.04 27.04 0 0 0-14.16 19h10.3A17.04 17.04 0 0 1 161 7.75V0zM171 50.54A27.03 27.03 0 0 0 192.56 29h-10.3a17.04 17.04 0 0 1-11.24 11.25zM178.4 0H171v7.75A17.04 17.04 0 0 1 182.27 19h10.3a27.04 27.04 0 0 0-14.17-19zM166 34a10 10 0 1 1 10-10 10 10 0 0 1-10 10zm0-2a8 8 0 1 0-8-8 8 8 0 0 0 8 8zm-39.5 176.15l-10.67-7.95 6-10.4 12.23 5.27a23.97 23.97 0 0 1 8.4-4.86L144 177h12l1.56 13.2a23.97 23.97 0 0 1 8.4 4.87l12.23-5.27 6 10.4-10.68 7.95a24 24 0 0 1 0 9.7l10.67 7.95-6 10.4-12.24-5.27a23.97 23.97 0 0 1-8.4 4.86L156 249h-12l-1.54-13.2a23.97 23.97 0 0 1-8.4-4.87l-12.23 5.27-6-10.4 10.67-7.95a24.1 24.1 0 0 1 0-9.7zm29.25-16.4l-1.5-12.75h-8.48l-1.5 12.76a22 22 0 0 0-9.8 5.65l-11.8-5.07-4.22 7.34 10.3 7.68a22.08 22.08 0 0 0 0 11.3l-10.3 7.68 4.23 7.34 11.8-5.08a22.1 22.1 0 0 0 9.8 5.64l1.5 12.76h8.47l1.5-12.76a22 22 0 0 0 9.8-5.65l11.8 5.07 4.22-7.34-10.3-7.68a22.08 22.08 0 0 0 0-11.3l10.3-7.68-4.23-7.34-11.8 5.08a21.98 21.98 0 0 0-9.8-5.64zM150 225a12 12 0 1 1 12-12 12 12 0 0 1-12 12zm0-2a10 10 0 1 0-10-10 10 10 0 0 0 10 10zm3.54 67.72l4.26.07.5 1.92-3.64 2.2c.1.62.2 1.26.25 1.9L159 298v2l-4.1 1.17c-.04.65-.13 1.3-.24 1.92l3.65 2.2-.5 1.9-4.26.08c-.22.6-.47 1.2-.74 1.8l2.96 3.05-1 1.74-4.13-1.04q-.56.8-1.18 1.54l2.07 3.72-1.42 1.4-3.72-2.06c-.5.4-1 .8-1.54 1.18l1.04 4.13-1.74 1-3.05-2.96c-.6.26-1.2.5-1.8.73l-.08 4.26-1.93.5-2.2-3.65c-.63.1-1.27.2-1.92.25L132 327h-2l-1.16-4.1c-.65-.05-1.3-.14-1.92-.25l-2.2 3.65-1.92-.5-.07-4.27c-.6-.22-1.2-.47-1.8-.74l-3.05 2.95-1.74-1 1.04-4.13q-.8-.56-1.54-1.18l-3.72 2.07-1.42-1.4 2.07-3.73c-.4-.5-.8-1-1.18-1.54l-4.14 1.04-1-1.74 2.96-3.05c-.27-.6-.52-1.2-.74-1.8l-4.26-.07-.5-1.92 3.64-2.2c-.1-.62-.2-1.26-.25-1.9L103 300v-2l4.1-1.17c.06-.65.15-1.3.26-1.92l-3.65-2.2.52-1.9 4.26-.08c.22-.6.47-1.2.74-1.8l-2.96-3.05 1-1.74 4.13 1.04c.37-.53.76-1.04 1.17-1.54l-2.07-3.72 1.42-1.4 3.72 2.06c.5-.4 1-.8 1.54-1.18l-1.04-4.13 1.74-1 3.05 2.96c.6-.26 1.2-.5 1.8-.73l.07-4.26 1.93-.5 2.2 3.65c.62-.1 1.26-.2 1.9-.25l1.18-4.1h2l1.18 4.1c.65.05 1.3.14 1.92.25l2.2-3.65 1.92.5.07 4.27c.6.22 1.2.47 1.8.74l3.04-2.95 1.74 1-1.04 4.13c.53.38 1.04.77 1.54 1.18l3.72-2.07 1.42 1.4-2.07 3.73c.4.5.8 1 1.18 1.54l4.13-1.04 1 1.74-2.96 3.05c.27.6.52 1.2.74 1.8zM109 299a22 22 0 1 0 22-22 22 22 0 0 0-22 22zm27.12-10.86l-3 5.22a6 6 0 0 0-4.2 0l-3.02-5.22a11.95 11.95 0 0 1 10.22 0zm1.74 1a12 12 0 0 1 5.1 8.86h-6a6 6 0 0 0-2.1-3.64l3-5.22zm-13.7 0l3.02 5.22a6 6 0 0 0-2.1 3.64h-6.03a12 12 0 0 1 5.1-8.86zm-5.1 10.86h6a6 6 0 0 0 2.1 3.64l-3 5.22a12 12 0 0 1-5.1-8.86zm6.84 9.86l3-5.22a6 6 0 0 0 4.2 0l3.02 5.22a11.95 11.95 0 0 1-10.22 0zm11.96-1l-3.02-5.22a6 6 0 0 0 2.1-3.64h6.03a12 12 0 0 1-5.1 8.86zm-4.68-19.62a10.04 10.04 0 0 0-4.34 0l1.05 1.82a8.4 8.4 0 0 1 2.23 0l1.05-1.82zm5.2 3l-1.05 1.82a7.97 7.97 0 0 1 1.12 1.94h2.1a10 10 0 0 0-2.17-3.76zm-14.74 0a10 10 0 0 0-2.17 3.76h2.1a7.97 7.97 0 0 1 1.12-1.94zm-2.17 9.76a10 10 0 0 0 2.17 3.76l1.05-1.82a8 8 0 0 1-1.13-1.94zm7.37 6.76a9.93 9.93 0 0 0 4.34 0l-1.05-1.82a8.4 8.4 0 0 1-2.24 0l-1.06 1.82zm9.54-3a10 10 0 0 0 2.17-3.76h-2.1a7.97 7.97 0 0 1-1.12 1.94zM127 299a4 4 0 1 1 4 4 4 4 0 0 1-4-4zm2 0a2 2 0 1 0 2-2 2 2 0 0 0-2 2zm15 0a4 4 0 1 1 4 4 4 4 0 0 1-4-4zm-6.5 11.26a4 4 0 1 1-1.46 5.46 4 4 0 0 1 1.47-5.46zm-13 0a4 4 0 1 1-5.46 1.47 4 4 0 0 1 5.47-1.47zM118 299a4 4 0 1 1-4-4 4 4 0 0 1 4 4zm6.5-11.26a4 4 0 1 1 1.47-5.46 4 4 0 0 1-1.46 5.46zm13 0a4 4 0 1 1 5.47-1.47 4 4 0 0 1-5.46 1.47zM146 299a2 2 0 1 0 2-2 2 2 0 0 0-2 2zm-7.5 13a2 2 0 1 0 2.66.98 2 2 0 0 0-2.65-1zm-15 0a2 2 0 1 0 .62 2.76 2 2 0 0 0-.6-2.77zm-7.5-13a2 2 0 1 0-2 2 2 2 0 0 0 2-2zm7.5-13a2 2 0 1 0-2.64-.98 2 2 0 0 0 2.65 1zm15 0a2 2 0 1 0-.6-2.76 2 2 0 0 0 .6 2.77zm103.8-61.7l-.8-8.2 5.8-1.56 3.43 7.52a58.16 58.16 0 0 1 6.92-.9L259 213h6l1.37 8.16a58.16 58.16 0 0 1 6.92.9l3.4-7.52 5.8 1.55-.8 8.2a57.98 57.98 0 0 1 6.46 2.7l5.25-6.4 5.2 3-2.9 7.75a60.25 60.25 0 0 1 5.54 4.25l6.73-4.8 4.24 4.24-4.8 6.73a60.24 60.24 0 0 1 4.26 5.53l7.74-2.9 3 5.2-6.38 5.25a59.62 59.62 0 0 1 2.68 6.45l8.22-.8 1.55 5.8-7.52 3.42a58.16 58.16 0 0 1 .9 6.92L330 278v6l-8.15 1.36a60.03 60.03 0 0 1-.9 6.92l7.52 3.42-1.55 5.8-8.22-.8a59.6 59.6 0 0 1-2.68 6.45l6.38 5.25-3 5.2-7.74-2.9a60.24 60.24 0 0 1-4.25 5.53l4.8 6.73-4.23 4.24-6.73-4.8a60.25 60.25 0 0 1-5.53 4.25l2.9 7.74-5.2 3-5.24-6.4a59.6 59.6 0 0 1-6.45 2.7l.8 8.2-5.8 1.56-3.4-7.52a58.16 58.16 0 0 1-6.93.9L265 349h-6l-1.35-8.16a60.02 60.02 0 0 1-6.92-.9l-3.42 7.52-5.8-1.55.8-8.2a59.63 59.63 0 0 1-6.44-2.7l-5.25 6.4-5.2-3 2.9-7.75a60.25 60.25 0 0 1-5.52-4.25l-6.73 4.8-4.24-4.24 4.8-6.73a60.26 60.26 0 0 1-4.24-5.53l-7.74 2.9-3-5.2 6.38-5.25a59.62 59.62 0 0 1-2.68-6.45l-8.22.8-1.55-5.8 7.52-3.42a62.08 62.08 0 0 1-.9-6.92L194 284v-6l8.17-1.36a58.16 58.16 0 0 1 .9-6.92l-7.52-3.42 1.55-5.8 8.22.8a60.45 60.45 0 0 1 2.68-6.45l-6.38-5.25 3-5.2 7.74 2.9a60.25 60.25 0 0 1 4.25-5.53l-4.8-6.73 4.25-4.24 6.73 4.8a60.26 60.26 0 0 1 5.53-4.25l-2.9-7.74 5.2-3 5.26 6.4a59.63 59.63 0 0 1 6.45-2.7zm2.13 1.4a57.5 57.5 0 0 0-9.08 3.78l-5.2-6.3-2.3 1.33 2.87 7.66a58.24 58.24 0 0 0-7.8 5.98l-6.64-4.75-1.88 1.87 4.75 6.65a58.24 58.24 0 0 0-5.98 7.8l-7.65-2.87-1.33 2.3 6.3 5.2a57.64 57.64 0 0 0-3.78 9.07l-8.12-.8-.7 2.6 7.44 3.37a58 58 0 0 0-1.27 9.72l-8.06 1.35v2.66l8.07 1.35a57.67 57.67 0 0 0 1.27 9.73l-7.43 3.4.7 2.57 8.12-.8a57.5 57.5 0 0 0 3.77 9.1l-6.3 5.18 1.32 2.3 7.65-2.86a58.24 58.24 0 0 0 5.98 7.78l-4.75 6.65 1.88 1.88 6.65-4.74a60.3 60.3 0 0 0 7.8 5.98l-2.87 7.65 2.3 1.32 5.2-6.3a57 57 0 0 0 9.07 3.77l-.8 8.1 2.6.7 3.37-7.43a57.54 57.54 0 0 0 9.73 1.27l1.35 8.06h2.66l1.35-8.06a57.67 57.67 0 0 0 9.72-1.27l3.38 7.43 2.58-.7-.8-8.1a57.5 57.5 0 0 0 9.1-3.78l5.18 6.3 2.3-1.33-2.86-7.66a58.24 58.24 0 0 0 7.8-5.98l6.64 4.75 1.88-1.87-4.75-6.65a60.3 60.3 0 0 0 5.98-7.8l7.65 2.87 1.33-2.3-6.3-5.2a57 57 0 0 0 3.77-9.07l8.12.8.7-2.6-7.44-3.37a58 58 0 0 0 1.27-9.72l8.06-1.35v-2.66l-8.05-1.35a58.04 58.04 0 0 0-1.27-9.73l7.43-3.4-.7-2.57-8.1.8a57.5 57.5 0 0 0-3.77-9.1l6.3-5.18-1.33-2.3-7.65 2.86a58.24 58.24 0 0 0-5.98-7.78l4.75-6.65-1.88-1.88-6.65 4.74a58.24 58.24 0 0 0-7.8-5.98l2.86-7.65-2.3-1.32-5.2 6.3a57.64 57.64 0 0 0-9.07-3.77l.78-8.1-2.58-.7-3.38 7.43a58 58 0 0 0-9.73-1.27l-1.36-8.06h-2.66l-1.35 8.06a57.67 57.67 0 0 0-9.73 1.27l-3.38-7.43-2.58.7.8 8.1zm4.58 50.1a13.96 13.96 0 0 0 0 10.4l-33.87 19.55a53.1 53.1 0 0 1 0-49.5L249 275.8zm2-3.46l-33.86-19.56A52.97 52.97 0 0 1 260 228.04v39.1a14 14 0 0 0-9 5.2zm0 17.32a14 14 0 0 0 9 5.2v39.1a52.97 52.97 0 0 1-42.86-24.74zm13 5.2a14 14 0 0 0 9-5.2l33.88 19.56A52.97 52.97 0 0 1 264 333.96v-39.1zm11-8.66a13.96 13.96 0 0 0 0-10.4l33.9-19.55a53.1 53.1 0 0 1 0 49.5zm-2-13.86a14 14 0 0 0-9-5.2v-39.1a52.97 52.97 0 0 1 42.88 24.74L273 272.34zm-57.03-13.3a51.1 51.1 0 0 0 0 43.92l30.62-17.68a15.95 15.95 0 0 1 0-8.56l-30.63-17.68zm4-6.93l30.62 17.7a16.08 16.08 0 0 1 7.4-4.3v-35.35a50.96 50.96 0 0 0-38.03 21.96zm0 57.8A50.96 50.96 0 0 0 258 331.84V296.5a15.98 15.98 0 0 1-7.4-4.3l-30.63 17.7zM266 331.84a50.96 50.96 0 0 0 38.05-21.96l-30.62-17.7a16.08 16.08 0 0 1-7.42 4.3v35.35zm42.05-28.9a51.1 51.1 0 0 0 0-43.9l-30.62 17.67a15.95 15.95 0 0 1 0 8.56l30.62 17.68zm-4-50.84A50.96 50.96 0 0 0 266 230.16v35.35a16.08 16.08 0 0 1 7.43 4.3zM262 290a9 9 0 1 1 9-9 9 9 0 0 1-9 9zm0-2a7 7 0 1 0-7-7 7 7 0 0 0 7 7zM0 242.64l2.77.4 4.75 2.27a38.2 38.2 0 0 1 2.85-3.4l-3.06-4.27-1.68-5.1 3.07-2.6 4.73 2.56 3.7 3.75a37.96 37.96 0 0 1 3.83-2.22l-1.42-5.07.17-5.38 3.77-1.37 3.6 4.03 2.17 4.8a36.58 36.58 0 0 1 4.37-.78L34 225l2-5h4l2 5 .4 5.25a36.58 36.58 0 0 1 4.38.77l2.18-4.8 3.6-4 3.75 1.36.18 5.38-1.42 5.07a39.48 39.48 0 0 1 3.84 2.22l3.7-3.76 4.73-2.56 3.07 2.58-1.7 5.1-3.05 4.3a38.2 38.2 0 0 1 2.85 3.4l4.75-2.28 5.33-.77 2 3.46-3.33 4.23-4.34 2.98a36.46 36.46 0 0 1 1.53 4.17l5.23-.5 5.27 1.1.7 3.93-4.58 2.84-5.1 1.3a38.6 38.6 0 0 1 0 4.45l5.1 1.3 4.58 2.85-.7 3.93-5.27 1.1-5.23-.5a36.3 36.3 0 0 1-1.52 4.16l4.35 2.98 3.33 4.23-2 3.46-5.33-.77-4.75-2.27a38.2 38.2 0 0 1-2.85 3.4l3.06 4.27 1.7 5.1-3.07 2.6-4.74-2.56-3.7-3.75a37.96 37.96 0 0 1-3.84 2.22l1.42 5.07-.17 5.38-3.75 1.37-3.6-4.03-2.17-4.8a36.58 36.58 0 0 1-4.37.78L42 311l-2 5h-4l-2-5-.4-5.25a37.87 37.87 0 0 1-4.36-.77l-2.18 4.8-3.6 4-3.75-1.36-.16-5.38 1.42-5.07a36.76 36.76 0 0 1-3.84-2.22l-3.7 3.76-4.73 2.56-3.08-2.58 1.7-5.1 3.05-4.3a38.2 38.2 0 0 1-2.85-3.4l-4.75 2.28-2.76.4v-8.17l3.1-2.14a37.72 37.72 0 0 1-1.5-4.17l-1.6.15v-8.82h.07a38.6 38.6 0 0 1 0-4.45H0v-8.83l1.6.16a39.04 39.04 0 0 1 1.5-4.16L0 250.8v-8.16zm0 1.87v3.9l5.63 3.84a35.74 35.74 0 0 0-2.55 7.02l-3.07-.3v4.75l2.2.57a36.42 36.42 0 0 0 0 7.46l-2.2.56v4.74l3.08-.3a35.2 35.2 0 0 0 2.55 7.02L0 287.6v3.9l1.77-.27 6.4-3.07a35.87 35.87 0 0 0 4.8 5.7l-4.13 5.8-1 3.06 1.2 1.03 2.86-1.52 4.98-5.08a36.47 36.47 0 0 0 6.45 3.73l-1.9 6.84.1 3.23 1.5.55 2.15-2.4 2.94-6.48a35.9 35.9 0 0 0 7.34 1.3L36 311l1.2 3h1.6l1.2-3 .56-7.1a35.9 35.9 0 0 0 7.34-1.28l2.94 6.47 2.15 2.4 1.5-.55.1-3.23-1.9-6.84a35.96 35.96 0 0 0 6.44-3.73l4.98 5.08 2.85 1.52 1.22-1.03-1-3.07-4.16-5.78a35.8 35.8 0 0 0 4.8-5.7l6.4 3.06 3.2.46.8-1.4-2-2.53-5.85-4a35.1 35.1 0 0 0 2.54-7.03l7.07.7 3.17-.66.28-1.58-2.75-1.7-6.88-1.77a35.77 35.77 0 0 0 0-7.46l6.88-1.77 2.75-1.7-.28-1.58-3.16-.66-7.06.7a35.74 35.74 0 0 0-2.55-7.02l5.85-4 2-2.55-.8-1.4-3.2.47-6.4 3.07a35.87 35.87 0 0 0-4.8-5.7l4.13-5.8 1-3.06-1.2-1.03-2.86 1.52-4.98 5.08a36.47 36.47 0 0 0-6.45-3.73l1.9-6.84-.1-3.23-1.5-.55-2.16 2.4-2.94 6.48a35.9 35.9 0 0 0-7.34-1.3L40 225l-1.2-3h-1.6l-1.2 3-.54 7.1a35.3 35.3 0 0 0-7.34 1.28l-2.94-6.47-2.15-2.4-1.5.55-.1 3.23 1.9 6.84a35.96 35.96 0 0 0-6.45 3.73l-4.98-5.08-2.85-1.52-1.22 1.03 1 3.07 4.15 5.78a36.18 36.18 0 0 0-4.8 5.7l-6.4-3.06L0 244.5zM38 272a4 4 0 1 1 4-4 4 4 0 0 1-4 4zm0-2a2 2 0 1 0-2-2 2 2 0 0 0 2 2zm0-26a4 4 0 1 1 4-4 4 4 0 0 1-4 4zm24 24a4 4 0 1 1 4 4 4 4 0 0 1-4-4zm-24 24a4 4 0 1 1-4 4 4 4 0 0 1 4-4zm-24-24a4 4 0 1 1-4-4 4 4 0 0 1 4 4zm24-26a2 2 0 1 0-2-2 2 2 0 0 0 2 2zm26 26a2 2 0 1 0 2-2 2 2 0 0 0-2 2zm-26 26a2 2 0 1 0 2 2 2 2 0 0 0-2-2zm-26-26a2 2 0 1 0-2 2 2 2 0 0 0 2-2zm3.38 22.63a12 12 0 1 1 16.95-.79 12 12 0 0 1-16.95.8zm0-45.26a12 12 0 1 1 .78 16.95 12 12 0 0 1-.78-16.95zm45.26 0a12 12 0 1 1-16.96.79 12 12 0 0 1 16.96-.8zm0 45.26a12 12 0 1 1-.8-16.95 12 12 0 0 1 .8 16.95zm-15.56-29.7a10 10 0 1 0 .24-14.14 10 10 0 0 0-.24 14.13zm0 14.14a10 10 0 1 0 14.14.24 10 10 0 0 0-14.14-.23zm-14.14 0a10 10 0 1 0-.25 14.14 10 10 0 0 0 .24-14.13zm0-14.14a10 10 0 1 0-14.15-.24 10 10 0 0 0 14.14.23zm230.9-245.4l-.08-4.18 1.93-.52 2.03 3.67a29.35 29.35 0 0 1 3.26-.43l1-4.07h2l1.03 4.07a26.9 26.9 0 0 1 3.26.43l2.03-3.67 1.93.52-.07 4.2a27 27 0 0 1 3.03 1.25l2.9-3 1.75 1-1.16 4.02a30.03 30.03 0 0 1 2.6 2l3.6-2.15 1.42 1.4-2.16 3.6a26.05 26.05 0 0 1 2 2.6l4.04-1.14 1 1.74-3 2.9a27 27 0 0 1 1.25 3.05l4.2-.07.5 1.93-3.66 2.04a29.34 29.34 0 0 1 .44 3.26L303 41v2l-4.06 1.02a26.9 26.9 0 0 1-.43 3.26l3.68 2.04-.52 1.93-4.2-.07a27.82 27.82 0 0 1-1.25 3.04l3.02 2.9-1 1.75-4.03-1.16a30.03 30.03 0 0 1-2 2.62l2.14 3.6-1.4 1.4-3.6-2.15a26.05 26.05 0 0 1-2.6 2l1.14 4.04-1.74 1-2.9-3a27 27 0 0 1-3.05 1.26l.06 4.2-1.93.5-2.04-3.66a29.35 29.35 0 0 1-3.27.43L272 74h-2l-1-4.07a26.9 26.9 0 0 1-3.27-.43l-2.04 3.67-1.94-.52.07-4.2a27.82 27.82 0 0 1-3.04-1.25l-2.92 3-1.74-1 1.16-4.02a31.63 31.63 0 0 1-2.6-2l-3.6 2.15-1.42-1.4 2.16-3.6a26.06 26.06 0 0 1-2-2.6l-4.04 1.14-1-1.74 3-2.9a27 27 0 0 1-1.25-3.05l-4.2.07-.5-1.93 3.66-2.04a29.35 29.35 0 0 1-.42-3.26L239 43v-2l4.08-1.02a26.9 26.9 0 0 1 .43-3.26l-3.66-2.04.52-1.93 4.2.07a27 27 0 0 1 1.25-3.04l-3-2.9 1-1.75 4.03 1.16a30.03 30.03 0 0 1 2-2.62l-2.15-3.6 1.4-1.4 3.6 2.15a26.05 26.05 0 0 1 2.6-2l-1.14-4.04 1.74-1 2.9 3a27 27 0 0 1 3.05-1.26zM271 68a26 26 0 1 0-26-26 26 26 0 0 0 26 26zm0-9a17 17 0 1 1 17-17 17 17 0 0 1-17 17zm0-2a15 15 0 1 0-15-15 15 15 0 0 0 15 15zm0-8a7 7 0 1 1 7-7 7 7 0 0 1-7 7zm0-2a5 5 0 1 0-5-5 5 5 0 0 0 5 5zm0-14a2 2 0 1 1 2-2 2 2 0 0 1-2 2zm9 9a2 2 0 1 1 2 2 2 2 0 0 1-2-2zm-9 9a2 2 0 1 1-2 2 2 2 0 0 1 2-2zm-9-9a2 2 0 1 1-2-2 2 2 0 0 1 2 2zm47.94 53.8l-1.8-3.92 1.63-1.18 3.15 2.92a7.6 7.6 0 0 1 1.25-.4L315 89h2l.85 4.2a8.67 8.67 0 0 1 1.25.4l3.15-2.9 1.62 1.18-1.8 3.9a7.23 7.23 0 0 1 .78 1.06l4.26-.5.63 1.9-3.75 2.1a7.16 7.16 0 0 1 0 1.3l3.75 2.1-.62 1.9-4.25-.5a7.57 7.57 0 0 1-.77 1.07l1.8 3.92-1.63 1.18-3.15-2.92a7.6 7.6 0 0 1-1.25.4L317 113h-2l-.83-4.2a8.67 8.67 0 0 1-1.25-.4l-3.15 2.9-1.62-1.18 1.8-3.9a8.03 8.03 0 0 1-.78-1.06l-4.26.5-.6-1.9 3.74-2.1a8.1 8.1 0 0 1 0-1.3l-3.75-2.1.6-1.9 4.27.5a7.57 7.57 0 0 1 .77-1.07zM316 106a5 5 0 1 0-5-5 5 5 0 0 0 5 5zM75.75 179.2l-.6-2.1 1.74-1 1.5 1.57a9.93 9.93 0 0 1 2.1-.55l.53-2.12h2l.54 2.12a9.9 9.9 0 0 1 2.1.55l1.5-1.56 1.74 1-.6 2.1a9.93 9.93 0 0 1 1.52 1.53l2.1-.6 1 1.74-1.56 1.5a10.46 10.46 0 0 1 .55 2.1l2.1.53v2l-2.1.53a9.9 9.9 0 0 1-.56 2.1l1.56 1.5-1 1.74-2.1-.6a9.93 9.93 0 0 1-1.52 1.52l.6 2.1-1.74 1-1.5-1.57a10.46 10.46 0 0 1-2.1.55L83 199h-2l-.52-2.12a10.06 10.06 0 0 1-2.1-.55l-1.5 1.56-1.74-1 .6-2.1a9.93 9.93 0 0 1-1.52-1.53l-2.1.6-1-1.74 1.56-1.5a9.93 9.93 0 0 1-.55-2.1L70 188v-2l2.13-.53a9.9 9.9 0 0 1 .55-2.1l-1.56-1.5 1-1.74 2.1.6a9.93 9.93 0 0 1 1.52-1.52zm2.15.94a8.04 8.04 0 0 0-2.75 2.74l-.14.25a7.96 7.96 0 0 0 0 7.74l.15.25a8.04 8.04 0 0 0 2.74 2.74l.24.14a7.96 7.96 0 0 0 7.74 0l.25-.14a8.04 8.04 0 0 0 2.74-2.74l.14-.25a7.96 7.96 0 0 0 0-7.74l-.13-.25a8.04 8.04 0 0 0-2.74-2.74l-.25-.14a7.96 7.96 0 0 0-7.74 0zM82 193a6 6 0 1 1 6-6 6 6 0 0 1-6 6zm0-2a4 4 0 1 0-4-4 4 4 0 0 0 4 4zm278 3.18l-3.8 5.6-7.17-3.5 2.6-8.08a32.15 32.15 0 0 1-3.07-2.46l-7.27 4.35-5.05-6.23 5.82-6.26a30.86 30.86 0 0 1-1.7-3.5l-8.45.72-1.8-7.8 7.95-3.07a32.5 32.5 0 0 1 0-3.9l-7.95-3.07 1.8-7.8 8.45.73a31.7 31.7 0 0 1 1.7-3.5l-5.82-6.27 5.04-6.22 7.26 4.36a33.06 33.06 0 0 1 3.07-2.46l-2.6-8.07 7.2-3.5 3.78 5.6v64.35zm0-3.53v-57.3l-4.45-6.58-4.1 2 2.53 7.87a30.14 30.14 0 0 0-5.13 4.1l-7.08-4.24-2.88 3.55 5.64 6.1a29.87 29.87 0 0 0-2.82 5.85l-8.24-.7-1.03 4.46 7.73 3a30.34 30.34 0 0 0 0 6.5l-7.73 3 1.03 4.44 8.24-.7a29.87 29.87 0 0 0 2.82 5.86l-5.65 6.1 2.87 3.54 7.08-4.23a30.14 30.14 0 0 0 5.13 4.1l-2.54 7.85 4.1 2 4.47-6.57zm0-51.57v5.7l-3.55-3.8a24.94 24.94 0 0 1 3.56-1.9zm0 22.68l-14.16 6.64a25.03 25.03 0 0 1 8.38-25.78l5.8 10.5zm0 23.16a25.08 25.08 0 0 1-13.3-13.9l13.3-2.55zm0-43.64l-.38.2.4.4v-.6zm0 18.3v-2.36l-6.3-11.44a22.93 22.93 0 0 0-6.42 19.76l12.73-5.97zm0 23.14V170.5l-10.46 2A23.1 23.1 0 0 0 360 182.72zM0 129.82l1 1.46a31.8 31.8 0 0 1 3.8-.86L6 122h8l1.2 8.42a31.3 31.3 0 0 1 3.8.86l4.8-7.06 7.2 3.5-2.6 8.08a33.06 33.06 0 0 1 3.06 2.46l7.27-4.35 5.04 6.23-5.82 6.26a30.86 30.86 0 0 1 1.7 3.5l8.45-.72 1.8 7.8-7.95 3.07a31.72 31.72 0 0 1 0 3.9l7.95 3.07-1.8 7.8-8.45-.73a33.5 33.5 0 0 1-1.7 3.5l5.82 6.27-5.04 6.22-7.27-4.36a33.06 33.06 0 0 1-3.07 2.46l2.6 8.07-7.2 3.5-4.78-7.05a32.2 32.2 0 0 1-3.8.86l-1.2 8.42H6l-1.2-8.42a31.8 31.8 0 0 1-3.8-.86l-1 1.46v-64.36zm0 3.53v57.3l.2-.3a29.07 29.07 0 0 0 6.35 1.45l1.17 8.2h4.58l1.17-8.2a29.75 29.75 0 0 0 6.35-1.44l4.65 6.87 4.1-2-2.53-7.87a30.14 30.14 0 0 0 5.13-4.1l7.08 4.24 2.88-3.55-5.65-6.1A29.57 29.57 0 0 0 38.3 172l8.24.7 1.03-4.46-7.73-3a30.7 30.7 0 0 0 0-6.5l7.73-3-1.03-4.44-8.24.7a29.87 29.87 0 0 0-2.82-5.86l5.65-6.1-2.88-3.54-7.08 4.23a30.14 30.14 0 0 0-5.13-4.1l2.54-7.85-4.1-2-4.66 6.86a29.82 29.82 0 0 0-6.35-1.44L12.3 124H7.7l-1.16 8.2a29.75 29.75 0 0 0-6.35 1.44l-.2-.3zM34.2 168.4l-16.26-7.62a7.94 7.94 0 0 0-.8-2.44l8.68-15.72a24.95 24.95 0 0 1 8.38 25.78zm-.85 2.63a25 25 0 0 1-21.94 15.93l2.22-17.82a8.3 8.3 0 0 0 2.07-1.5zM0 139.08A25.02 25.02 0 0 1 23.58 141L11.3 154.1a8.06 8.06 0 0 0-2.57 0L0 144.8zm0 22.68v-8.65l2.9 5.24a7.84 7.84 0 0 0-.8 2.44l-2.1.98zm0 23.16v-16.45l4.33-.83a8.12 8.12 0 0 0 2.07 1.5l2.23 17.82A24.88 24.88 0 0 1 0 184.92zM10 156a6 6 0 1 1-6 6 6 6 0 0 1 6-6zm0 2a4 4 0 1 0 4 4 4 4 0 0 0-4-4zM0 141.28v.6L9.5 152a9.02 9.02 0 0 1 1.03 0l9.87-10.53a23.08 23.08 0 0 0-20.4-.2zm0 18.3l.35-.17c.1-.33.2-.66.32-.98l-.66-1.2v2.35zm0 23.14a22.98 22.98 0 0 0 6.35 2l-1.8-14.34q-.43-.28-.83-.6l-3.7.7zm13.67 2a23.03 23.03 0 0 0 16.8-12.22l-14.17-2.72a9.86 9.86 0 0 1-.84.6l-1.8 14.33zm19.07-19.18a22.93 22.93 0 0 0-6.42-19.75l-6.97 12.62c.12.32.23.65.32 1l13.07 6.12zM137.54 360l-4.06-5.7 2.83-2.83 6.74 4.8c.7-.56 1.4-1.1 2.14-1.63l-2.9-7.75 3.46-2 5.25 6.37c.8-.37 1.64-.72 2.5-1.03l-.8-8.22 3.85-1.04 3.43 7.52c.88-.15 1.77-.26 2.67-.35L164 340h4l1.37 8.15c.9.1 1.8.2 2.67.35l3.43-7.52 3.86 1.04-.8 8.22c.85.3 1.68.66 2.5 1.03l5.25-6.38 3.46 2-2.9 7.74c.74.52 1.45 1.07 2.14 1.64l6.73-4.8 2.84 2.82-4.07 5.7h-56.92zm2.44 0h52.06l3.9-5.46-.47-.47-6.63 4.73a34.14 34.14 0 0 0-4.4-3.38l2.86-7.63-.58-.34-5.18 6.3a33.8 33.8 0 0 0-5.12-2.14l.78-8.1-.64-.18-3.37 7.42a34.02 34.02 0 0 0-5.5-.72l-1.36-8.04h-.66l-1.34 8.04a34.18 34.18 0 0 0-5.5.72l-3.38-7.42-.64.18.78 8.1a33.88 33.88 0 0 0-5.12 2.13l-5.18-6.3-.58.34 2.86 7.62a33.58 33.58 0 0 0-4.4 3.38l-6.63-4.73-.47.47zm9.75 0a28.83 28.83 0 0 1 13.28-4.85V360zm32.56 0H169v-4.85a28.7 28.7 0 0 1 13.3 4.85zm-28.67 0H161v-2.54a26.8 26.8 0 0 0-7.37 2.54zm24.76 0a26.8 26.8 0 0 0-7.4-2.54V360zM358.8 0h-1.2l1.5 3.28a48.3 48.3 0 0 0-5.8 5.8l-9.4-4.3-1.64 2.26 7 7.58a47.84 47.84 0 0 0-3.74 7.33l-10.24-1.2-.86 2.66 9 5.06a47.9 47.9 0 0 0-1.3 8.12l-10.1 2.02v2.8l10.1 2.02a48.07 48.07 0 0 0 1.3 8.12l-9 5.05.86 2.65 10.24-1.2a49.1 49.1 0 0 0 3.74 7.33l-7 7.58 1.65 2.26 9.4-4.3a48.3 48.3 0 0 0 5.8 5.8l-4.3 9.38 2.25 1.65 2.96-2.73v2.66l-2.83 2.62-4.85-3.52 4.36-9.5a50.3 50.3 0 0 1-3.95-3.95l-9.5 4.36-3.52-4.86 7.1-7.68a49.84 49.84 0 0 1-2.55-4.98l-10.38 1.2-1.85-5.7 9.1-5.1a49.9 49.9 0 0 1-.86-5.53L330 43v-6l10.26-2.05a49.98 49.98 0 0 1 .87-5.52l-9.1-5.12 1.84-5.7 10.38 1.22a48.56 48.56 0 0 1 2.54-4.98l-7.1-7.68 3.53-4.85 9.5 4.37a50.3 50.3 0 0 1 3.95-3.95L355.43 0zm1.2 52.7l-6.47 3.74a40.15 40.15 0 0 1 0-32.88L360 27.3v25.4zm0-39.16v4.52l-2.46-1.43c.77-1.07 1.6-2.1 2.47-3.1zm0 52.92a39.02 39.02 0 0 1-2.46-3.1l2.47-1.42zm0-16.07V29.6l-5.5-3.17a37.9 37.9 0 0 0 0 27.14zM62.44 360h2.16l3.1-6.78-4.85-3.52-7.68 7.08a49.82 49.82 0 0 0-4.98-2.54l1.2-10.38-5.7-1.85-5.12 9.12a49.9 49.9 0 0 0-5.52-.87L33 340h-6l-2.04 10.25a51.5 51.5 0 0 0-5.52.87l-5.12-9.1-5.7 1.84 1.2 10.38a48.56 48.56 0 0 0-4.97 2.54L0 352.32V355l4.63 4.25a47.84 47.84 0 0 1 7.33-3.74l-1.2-10.23 2.66-.86 5.05 9a47.9 47.9 0 0 1 8.12-1.28l2-10.12h2.8l2.03 10.12a48.07 48.07 0 0 1 8.12 1.28l5.05-9 2.66.87-1.2 10.24a49.1 49.1 0 0 1 7.33 3.75l7.57-7 2.26 1.65-2.8 6.1zM360 244.5l-1.43-.2-.8 1.4 2 2.53.24.17zm0 14.46l-4-.4-3.15.66-.28 1.58 2.75 1.7 4.7 1.2v-4.74zm0 13.33l-4.7 1.2-2.73 1.7.28 1.58 3.16.66 4-.4zm0 15.3l-.23.17-2 2.54.8 1.4 1.44-.2zm0 5.76l-2.56.37-2-3.46 3.33-4.23 1.24-.85v8.16zm0-14.3l-3.64.35-5.27-1.1-.7-3.93 4.57-2.84 5.04-1.3zm0-13.3l-5.03-1.3-4.58-2.83.7-3.93 5.26-1.1 3.65.35v8.82zm0-14.95l-1.23-.84-3.33-4.23 2-3.46 2.57.37v8.17zm0 101.5v7.7h-4.57l-3.1-6.78 4.84-3.52 2.84 2.62zm0 2.68l-2.95-2.73-2.26 1.65 2.8 6.1h2.4z" opacity=".05"/></svg>